<svg width="1886" height="2409" viewBox="0 0 1886 2409" fill="none" xmlns="http://www.w3.org/2000/svg">
<rect width="1886" height="2409" fill="#F2F2F2"/>
<g id="Map Block B - Ground">
<path d="M-936.5 -571.5C-936.5 -572.605 -935.605 -573.5 -934.5 -573.5H2823.5C2824.6 -573.5 2825.5 -572.605 2825.5 -571.5V2978.5C2825.5 2979.6 2824.6 2980.5 2823.5 2980.5H-934.5C-935.605 2980.5 -936.5 2979.6 -936.5 2978.5V-571.5Z" fill="black"/>
<path d="M-934.5 -573.5V-572.5H2823.5V-573.5V-574.5H-934.5V-573.5ZM2825.5 -571.5H2824.5V2978.5H2825.5H2826.5V-571.5H2825.5ZM2823.5 2980.5V2979.5H-934.5V2980.5V2981.5H2823.5V2980.5ZM-936.5 2978.5H-935.5V-571.5H-936.5H-937.5V2978.5H-936.5ZM-934.5 2980.5V2979.5C-935.052 2979.5 -935.5 2979.05 -935.5 2978.5H-936.5H-937.5C-937.5 2980.16 -936.157 2981.5 -934.5 2981.5V2980.5ZM2825.5 2978.5H2824.5C2824.5 2979.05 2824.05 2979.5 2823.5 2979.5V2980.5V2981.5C2825.16 2981.5 2826.5 2980.16 2826.5 2978.5H2825.5ZM2823.5 -573.5V-572.5C2824.05 -572.5 2824.5 -572.052 2824.5 -571.5H2825.5H2826.5C2826.5 -573.157 2825.16 -574.5 2823.5 -574.5V-573.5ZM-934.5 -573.5V-574.5C-936.157 -574.5 -937.5 -573.157 -937.5 -571.5H-936.5H-935.5C-935.5 -572.052 -935.052 -572.5 -934.5 -572.5V-573.5Z" fill="black" fill-opacity="0.1"/>
<g id="map-block b - ground">
<path id="Building Interior #mask" opacity="0.6" d="M237.5 1975L262.5 2376.5H35.5V1932H200L237.5 1975ZM764.5 1911L800.5 2110L607.5 2183L555 2006L699.5 1880L764.5 1911ZM1233.5 1710.5L1021 1966.5L793.5 1706L932 1544L1233.5 1710.5ZM1504.5 93.501H1700V673.501H1393.5V843H1405V811.706L1668 810.5V824H1886V1139H1405V993.5H1239.5V1063H1143.5V811.5H1321V843H1326V503.5H1279.5V414.5H1182.5V188.5H1280.5L1281.84 96.501H1415.5V2.5H1504.5V93.501Z" fill="#FF2670"/>
<path id="Outside Courtyard #zone #outside" opacity="0.6" d="M1742.5 1139H1405V811.706L1668 810.5V824H1886V1139H1742.5Z" fill="#036843"/>
<path id="PBA Roonm #zone #rooms" opacity="0.6" d="M200 1932H35.5V2146.5V2376.5H262.5L237.5 1975L200 1932Z" fill="#FFD0F3"/>
<g id="OUTSIDE COURTYARD">
<text id="Studio 1" fill="white" fill-opacity="0.69" style="white-space: pre" xml:space="preserve" font-family="Inter" font-size="24" font-weight="600" letter-spacing="0.02em"><tspan x="1590.47" y="983.227">OUTSIDE&#10;</tspan><tspan x="1567.6" y="1011.23">COURTYARD</tspan></text>
</g>
<path id="H2 Rooms #zone #rooms" opacity="0.6" d="M764.5 1911L800.5 2110L607.5 2183L555 2006L699.5 1880L764.5 1911Z" fill="#F2EFFF"/>
<g id="H2 ROOMS">
<text id="Studio 1_2" fill="white" fill-opacity="0.69" style="white-space: pre" xml:space="preserve" font-family="Inter" font-size="24" font-weight="600" letter-spacing="0.02em"><tspan x="608.5" y="2043.23">H2 ROOMS </tspan></text>
</g>
<path id="Studio 4 #zone #studio" opacity="0.6" d="M1021 1966.5L793.5 1706L932 1544L1233.5 1710.5L1021 1966.5Z" fill="#FFCECB"/>
<path id="No Name #zone #forbidden #no-name" opacity="0.6" d="M1143.5 1063V811.5H1321V843H1405V993.5H1239.5V1063H1143.5Z" fill="#008AA1"/>
<path id="Foyer #zone #public" opacity="0.6" d="M1280.5 188.501L1281.84 96.5008H1415.5V2.5H1504.5V93.5008H1700V673.501H1393.5V843.001H1326V503.5H1279.5V414.5H1325.5V188.501H1280.5Z" fill="#F9FFD3"/>
<path id="Bar #zone #amenity #forbidden" opacity="0.6" d="M1182.5 188.5H1327.5V414.5H1182.5V188.5Z" fill="#FF2670"/>
<g id="FOYER">
<text id="Studio 1_3" fill="white" fill-opacity="0.69" style="white-space: pre" xml:space="preserve" font-family="Inter" font-size="24" font-weight="600" letter-spacing="0.02em"><tspan x="1463.5" y="386.227">FOYER</tspan></text>
</g>
<g id="BAR">
<text id="Studio 1_4" fill="white" fill-opacity="0.69" style="white-space: pre" xml:space="preserve" font-family="Inter" font-size="24" font-weight="600" letter-spacing="0.02em"><tspan x="1225.5" y="307.227">BAR</tspan></text>
</g>
<g id="STUDIO 4">
<text id="Studio 1_5" fill="white" fill-opacity="0.69" style="white-space: pre" xml:space="preserve" font-family="Inter" font-size="24" font-weight="600" letter-spacing="0.02em"><tspan x="930.5" y="1740.23">STUDIO 4</tspan></text>
</g>
<g id="Walls #structure">
<path d="M870.5 1141.5H894.5V1122H887.5V1065.5H870.5V1141.5Z" fill="#313131"/>
<path d="M472 1705L450 1630.5H427.5V1664L457.5 1688.5L468.5 1728.5L537 1705L529.5 1685.5C508.74 1693.99 489.314 1700.45 472 1705Z" fill="#313131"/>
<path d="M1051 2.5H1430V57H1406V37.5H1064.5V71H1120.3V93H1052L1051 2.5Z" fill="#313131"/>
<path d="M2.5 1630.5V2406H257.5V2396.5V2380H271.5L262.5 2281H249.5L257.5 2369H228H165.5H48L42 2360.5V1935.5H102V1921.5H54.5V1887.5H64V1874.5H42L57 1667H169V1714.5H183.5V1646.5H236.5H393V1630.5H2.5Z" fill="#313131"/>
<path d="M631.5 2406V2373L587.5 2381.66V2406H631.5Z" fill="#313131"/>
<path d="M631.5 2340V2287C673.006 2274.05 712.647 2259.72 750.5 2244.16L742 2222.5L616.5 2266V2333.5L631.5 2340Z" fill="#313131"/>
<path d="M1501 1141.5H1555.5L1509 1103H1480.5C1479.17 1139.83 1475.3 1221.1 1470.5 1251.5L1495.73 1255C1500.08 1213.57 1501.65 1175.37 1501 1141.5Z" fill="#313131"/>
<path d="M1699.5 823V657H1668V667H1566.5V677.5H1597H1604.5H1668V823H1699.5Z" fill="#313131"/>
<path d="M1669.5 165H1699.5V83.5H1669.5V94V165Z" fill="#313131"/>
<path d="M172.5 1766H183.5H385.5V1771.5L451.5 1766L468.5 1825L448.5 1830.5L435.5 1784L378.5 1789L354.5 1784H197.5V1803H172.5V1766Z" fill="#313131"/>
<path d="M472.5 1885L482 1923L472.5 1936L514 2104L488 2112L495 2132L543 2118L472.5 1843.5L454.5 1848L459.5 1873L472.5 1885Z" fill="#313131"/>
<path d="M317.5 2015L420 2145L440 2147.5L470.5 2138.5L464 2119L437.5 2126.5L335.5 1998L317.5 2015Z" fill="#313131"/>
<path d="M86 1874.5V1887.5H190H203.5V1859.5H177V1874.5H86Z" fill="#313131"/>
<path d="M121.5 1921.5V1935.5H183.5L190 1942L209.5 1930.74L204.164 1921.5H190H121.5Z" fill="#313131"/>
<path d="M213 1991.5L236.5 1978L245.5 1991.5H256L259.5 2082.5H234.5L230.5 2015L213 1991.5Z" fill="#313131"/>
<path d="M237 2115H263L268 2203.5H420V2185H440V2225H257.5L260.5 2247H247L237 2115Z" fill="#313131"/>
<path d="M584 2155L600.5 2205.5L611.5 2201.5C611.5 2201.5 798.6 2133.5 841 2105.5L825 2079L804.5 2091.5L790 2008.5L765 2015.5L782.5 2103L616.5 2167.5L610 2147L584 2155Z" fill="#313131"/>
<path d="M761.5 1985L784.5 1980L773.5 1921L770 1896L753.5 1902L750.5 1928.5L761.5 1985Z" fill="#313131"/>
<path d="M576 2119L600.5 2112L569 2006L622.5 1961L608.5 1945L565 1985L512.5 1804.5L518.5 1787L509.5 1759L503 1747.5L475 1760.5L576 2119Z" fill="#313131"/>
<path d="M629 1927.5L643.5 1943L707 1881L697.5 1872L679.5 1885L629 1927.5Z" fill="#313131"/>
<path d="M1064.5 1946C1132.1 1877.2 1151 1857.33 1152 1856L1115.5 1831.5L1010.5 1946L805 1701L938.5 1544.5L930.5 1538.5L794 1696L757 1652L882 1490.5L868.5 1477.5C857.162 1508.46 807.773 1578.73 695.281 1658L712 1680L743 1663L782.5 1714L874.5 1827L894 1830.5L1010.5 1969.5C1010.5 1969.5 1005.21 1993.97 913 2055.03L918.5 2062.65C961.86 2034.35 1018.62 1992.69 1064.5 1946Z" fill="#313131"/>
<path d="M572.5 1733L580 1754L690.5 1693L674.883 1672C644.915 1692.04 610.918 1712.53 572.5 1733Z" fill="#313131"/>
<path d="M941 1469L958 1477.5L972.5 1445.5L1278.5 1576L1229 1692L1210 1679L1195.5 1702L1208 1712L1139 1803L1171.5 1829.5C1219.17 1769.83 1321.2 1622.8 1348 1512L1313 1496L1283.5 1566L976 1432L1015 1341L997 1334.5L941 1469Z" fill="#313131"/>
<path d="M1070.5 1296.5L1107.5 1156H1378.5L1344 1421.5L1329 1458L1363.5 1468C1409.1 1364 1414.83 1207 1412 1141.5V1066.5V1036.5H1390.5V1065.5L1358.5 1067.06L1336 1068.15L1318 1069.03L1295.25 1070.13L1245 1071.24L1227.5 1072.76L1210 1074.28L969 1086V1065.5H937.5V1114L1398.5 1088.5V1138.5H973V1145.5L956.5 1258L971 1261L989 1156H1080L1054.5 1293L1070.5 1296.5Z" fill="#313131"/>
<path d="M1210 1036.5V1074.28L1227.5 1072.76L1245 1071.24V1001.5H1276V988H1234.5V1036.5H1210Z" fill="#313131"/>
<path d="M1318 988V1069.03L1336 1068.15V988H1318Z" fill="#313131"/>
<path d="M1373 988V998H1412V937H1402.5V988H1373Z" fill="#313131"/>
<path d="M1390.5 850.5H1418.5V823H1455.5V780H1398.5V767.5V748.5V734H1390.5V850.5Z" fill="#313131"/>
<path d="M1498 667V677.5H1484.5H1398.5V697H1390.5V667H1428.5H1498Z" fill="#313131"/>
<path d="M1157 1061.5V850.5H1168.5V814H1157V715.5H1180.5V525.5H1228H1247H1285V506.5H1320V547H1339V494H1285V457.5H1276.5V518H1247H1228H1180.5V415H1276.5V435.5H1285V408H1180.5V191H1294.5V181.5H1278H1180.5V87H1278V151.5H1285V97L1406 99H1430V75H1402.5V83.5H1358H1336.5V65L1141 71V87H1152.5V482H1138V511.5L1152.5 536.615V697H1128.5V1061.5H1157Z" fill="#313131"/>
<path d="M1320 144H1336.5V449.5H1320V144Z" fill="#313131"/>
<path d="M1310.5 806V850.5H1336V631.5H1318V672.5V719V806H1310.5Z" fill="#313131"/>
<path d="M894.5 1141.5H870.5V1065.5M894.5 1141.5C895.904 1458.85 678.403 1624.57 529.5 1685.5M894.5 1141.5V1122H887.5V1065.5M870.5 1065.5H887.5M870.5 1065.5H706.5V976.5H721V628.5H709.5V536H685V402H709.5V136.5H689.5V2.5H1051M1051 2.5H1430V57H1406V37.5H1064.5V71H1120.3V93H1052L1051 2.5ZM529.5 1685.5C508.74 1693.99 489.314 1700.45 472 1705L450 1630.5H427.5V1664L457.5 1688.5L468.5 1728.5L537 1705L529.5 1685.5ZM257.5 2406H2.5V1630.5H393V1646.5H236.5H183.5V1714.5H169V1667H57L42 1874.5H64V1887.5H54.5V1921.5H102V1935.5H42V2360.5L48 2369H165.5H228H257.5L249.5 2281H262.5L271.5 2380H257.5V2396.5V2406ZM257.5 2406H587.5M631.5 2373V2406H587.5M631.5 2373V2340M631.5 2373L587.5 2381.66V2406M631.5 2340V2287C673.006 2274.05 712.647 2259.72 750.5 2244.16M631.5 2340L616.5 2333.5V2266L742 2222.5L750.5 2244.16M750.5 2244.16C1287.31 2023.44 1464.29 1554.71 1495.73 1255M1495.73 1255C1500.08 1213.57 1501.65 1175.37 1501 1141.5H1555.5L1509 1103H1480.5C1479.17 1139.83 1475.3 1221.1 1470.5 1251.5L1495.73 1255ZM887.5 1065.5H937.5M937.5 1065.5V1114L1398.5 1088.5V1138.5H973V1145.5L956.5 1258L971 1261L989 1156H1080L1054.5 1293L1070.5 1296.5L1107.5 1156H1378.5L1344 1421.5L1329 1458L1363.5 1468C1409.1 1364 1414.83 1207 1412 1141.5V1066.5V1036.5H1390.5V1065.5L1358.5 1067.06L1336 1068.15M1245 1071.24L1227.5 1072.76L1210 1074.28L969 1086V1065.5H937.5M1210 1074.28V1036.5H1234.5V988H1276V1001.5H1245V1071.24M1336 1068.15L1318 1069.03L1295.25 1070.13L1245 1071.24M1318 1069.03V988H1336V1068.15M1699.5 657V823H1668V677.5H1604.5H1597H1566.5V667H1668V657H1699.5ZM1699.5 657V165M1699.5 165H1669.5V94M1699.5 165V83.5M1699.5 83.5V2.5H1603M1699.5 83.5H1669.5V94M1669.5 94H1603H1562.5M1603 2.5V75M1603 2.5H1504.5V60M172.5 1766V1803H197.5V1784H354.5L378.5 1789L435.5 1784L448.5 1830.5L468.5 1825L451.5 1766L385.5 1771.5V1766H183.5H172.5ZM472.5 1885L482 1923L472.5 1936L514 2104L488 2112L495 2132L543 2118L472.5 1843.5L454.5 1848L459.5 1873L472.5 1885ZM317.5 2015L420 2145L440 2147.5L470.5 2138.5L464 2119L437.5 2126.5L335.5 1998L317.5 2015ZM86 1874.5V1887.5H190H203.5V1859.5H177V1874.5H86ZM121.5 1921.5V1935.5H183.5L190 1942L209.5 1930.74L204.164 1921.5H190H121.5ZM213 1991.5L236.5 1978L245.5 1991.5H256L259.5 2082.5H234.5L230.5 2015L213 1991.5ZM237 2115H263L268 2203.5H420V2185H440V2225H257.5L260.5 2247H247L237 2115ZM584 2155L600.5 2205.5L611.5 2201.5C611.5 2201.5 798.6 2133.5 841 2105.5L825 2079L804.5 2091.5L790 2008.5L765 2015.5L782.5 2103L616.5 2167.5L610 2147L584 2155ZM761.5 1985L784.5 1980L773.5 1921L770 1896L753.5 1902L750.5 1928.5L761.5 1985ZM576 2119L600.5 2112L569 2006L622.5 1961L608.5 1945L565 1985L512.5 1804.5L518.5 1787L509.5 1759L503 1747.5L475 1760.5L576 2119ZM629 1927.5L643.5 1943L707 1881L697.5 1872L679.5 1885L629 1927.5ZM1064.5 1946C1132.1 1877.2 1151 1857.33 1152 1856L1115.5 1831.5L1010.5 1946L805 1701L938.5 1544.5L930.5 1538.5L794 1696L757 1652L882 1490.5L868.5 1477.5C857.162 1508.46 807.773 1578.73 695.281 1658L712 1680L743 1663L782.5 1714L874.5 1827L894 1830.5L1010.5 1969.5C1010.5 1969.5 1005.21 1993.97 913 2055.03L918.5 2062.65C961.86 2034.35 1018.62 1992.69 1064.5 1946ZM572.5 1733C610.918 1712.53 644.915 1692.04 674.883 1672L690.5 1693L580 1754L572.5 1733ZM941 1469L958 1477.5L972.5 1445.5L1278.5 1576L1229 1692L1210 1679L1195.5 1702L1208 1712L1139 1803L1171.5 1829.5C1219.17 1769.83 1321.2 1622.8 1348 1512L1313 1496L1283.5 1566L976 1432L1015 1341L997 1334.5L941 1469ZM1373 988V998H1412V937H1402.5V988H1373ZM1390.5 850.5H1418.5V823H1455.5V780H1398.5V767.5V748.5V734H1390.5V850.5ZM1498 667H1428.5H1390.5V697H1398.5V677.5H1484.5H1498V667ZM1157 1061.5V850.5H1168.5V814H1157V715.5H1180.5V525.5H1228H1247H1285V506.5H1320V547H1339V494H1285V457.5H1276.5V518H1247H1228H1180.5V415H1276.5V435.5H1285V408H1180.5V191H1294.5V181.5H1278H1180.5V87H1278V151.5H1285V97L1406 99H1430V75H1402.5V83.5H1358H1336.5V65L1141 71V87H1152.5V482H1138V511.5L1152.5 536.615V697H1128.5V1061.5H1157ZM1320 144H1336.5V449.5H1320V144ZM1310.5 806V850.5H1336V631.5H1318V672.5V719V806H1310.5Z" stroke="#313131" stroke-width="5"/>
</g>
<g id="PBA ROOMS">
<text id="Studio 1_6" fill="white" fill-opacity="0.69" style="white-space: pre" xml:space="preserve" font-family="Inter" font-size="24" font-weight="600" letter-spacing="0.02em"><tspan x="63.5" y="2169.23">PBA ROOMS</tspan></text>
</g>
</g>
</g>
</svg>
