<svg width="1433" height="1143" viewBox="0 0 1433 1143" fill="none" xmlns="http://www.w3.org/2000/svg">
<rect width="1433" height="1143" fill="#F2F2F2"/>
<g id="Map Block B - 1st Floor">
<path d="M40 42C40 40.8954 40.8954 40 42 40H1390C1391.1 40 1392 40.8954 1392 42V1101C1392 1102.1 1391.1 1103 1390 1103H42C40.8954 1103 40 1102.1 40 1101V42Z" fill="black"/>
<path d="M42 40V41H1390V40V39H42V40ZM1392 42H1391V1101H1392H1393V42H1392ZM1390 1103V1102H42V1103V1104H1390V1103ZM40 1101H41V42H40H39V1101H40ZM42 1103V1102C41.4477 1102 41 1101.55 41 1101H40H39C39 1102.66 40.3431 1104 42 1104V1103ZM1392 1101H1391C1391 1101.55 1390.55 1102 1390 1102V1103V1104C1391.66 1104 1393 1102.66 1393 1101H1392ZM1390 40V41C1390.55 41 1391 41.4477 1391 42H1392H1393C1393 40.3432 1391.66 39 1390 39V40ZM42 40V39C40.3431 39 39 40.3432 39 42H40H41C41 41.4477 41.4477 41 42 41V40Z" fill="black" fill-opacity="0.1"/>
<g id="Group 28989616">
<path id="Building Interior #mask" opacity="0.6" d="M1205 536L983.657 538.794L985 538.777V579.284H1219.5V564.284H1371V692.784L1390 705.784V860.784H1148.5V832.784L944.503 833.5L944 887.124H937V1057.5L488 1075V1044H476.5V763H500.5L628.5 765.5V753H702V772.5H831L831.536 727.5H848V540.506L650.5 543V515H552.5V507L474 500.5L476 173L556 151L1205 123V536Z" fill="#C600AA"/>
<g id="Studio 1 #zone #studio #forbidden">
<path id="Vector 96" opacity="0.6" d="M474 500.5L476 173L556 151L1205 123V536L650.5 543V515H552.5V507L474 500.5Z" fill="#7365FF"/>
<g id="Studio 1 Stage #decoration">
<g id="Union">
<mask id="path-5-inside-1_2440_4877" fill="white">
<path d="M873.74 422.872H727.96C685.486 415.827 653.1 377.708 653.1 333.237C653.1 288.765 685.486 250.646 727.96 243.602H873.74V422.872Z"/>
</mask>
<path d="M873.74 422.872H727.96C685.486 415.827 653.1 377.708 653.1 333.237C653.1 288.765 685.486 250.646 727.96 243.602H873.74V422.872Z" stroke="white" stroke-opacity="0.12" stroke-width="4" mask="url(#path-5-inside-1_2440_4877)"/>
</g>
<g id="Union_2">
<mask id="path-6-inside-2_2440_4877" fill="white">
<path d="M893.439 442.568H726.337L724.736 442.303C672.591 433.654 633.399 387.173 633.399 333.233C633.399 279.294 672.591 232.812 724.736 224.164L726.337 223.898H893.439V442.568Z"/>
</mask>
<path d="M893.439 442.568H726.337L724.736 442.303C672.591 433.654 633.399 387.173 633.399 333.233C633.399 279.294 672.591 232.812 724.736 224.164L726.337 223.898H893.439V442.568Z" stroke="white" stroke-opacity="0.12" stroke-width="4" mask="url(#path-6-inside-2_2440_4877)"/>
</g>
<g id="Union_3">
<mask id="path-7-inside-3_2440_4877" fill="white">
<path d="M913.14 462.269H724.715L721.513 461.738C659.691 451.485 613.7 396.635 613.7 333.234C613.7 269.834 659.691 214.984 721.513 204.73L724.715 204.199H913.14V462.269Z"/>
</mask>
<path d="M913.14 462.269H724.715L721.513 461.738C659.691 451.485 613.7 396.635 613.7 333.234C613.7 269.834 659.691 214.984 721.513 204.73L724.715 204.199H913.14V462.269Z" stroke="white" stroke-opacity="0.12" stroke-width="4" mask="url(#path-7-inside-3_2440_4877)"/>
</g>
<g id="Union_4">
<mask id="path-8-inside-4_2440_4877" fill="white">
<path d="M932.84 481.97H723.092L718.29 481.174C646.784 469.314 594 406.09 594 333.235C594 260.38 646.784 197.156 718.29 185.296L723.092 184.5H932.84V481.97Z"/>
</mask>
<path d="M932.84 481.97H723.092L718.29 481.174C646.784 469.314 594 406.09 594 333.235C594 260.38 646.784 197.156 718.29 185.296L723.092 184.5H932.84V481.97Z" stroke="white" stroke-opacity="0.12" stroke-width="4" mask="url(#path-8-inside-4_2440_4877)"/>
</g>
</g>
<path id="Studio 1 High Stage #decoration" d="M542.85 434.096L515.062 424.021L515.308 345.822L515.554 267.624L542.392 258.754M542.392 258.754L542.237 199.5L478.002 213.892L478 480.631L543.01 495L542.392 258.754Z" stroke="white" stroke-opacity="0.12" stroke-width="1.97"/>
<rect id="Studio 1 Seating #decoration" x="1010" y="167.5" width="161" height="332" stroke="white" stroke-opacity="0.12" stroke-width="2"/>
</g>
<path id="Foyer #zone #studio" opacity="0.6" d="M848 540.5V727.5H945.5L944.5 833.501L1148.5 832.784V860.784H1390V705.784L1371 692.784V564.284H1219.5V579.284H985V538.777L848 540.5Z" fill="#9462FA"/>
<path id="Studio 2 #zone #studio" opacity="0.6" d="M476.5 763V1044H488V1075L937 1057.5V887.124H944L945.5 727.5H831.536L831 772.5H702V753H628.5V765.5L500.5 763H476.5Z" fill="#C600AA"/>
<g id="Walls #structure">
<path d="M1199 43V64.5H1108.25V94.5L1134 86.5L1199 87.25V110H1225.5V587H1199H978.5V537.5H1199V130H1108.25L555.5 156.5L474 177.5V138L798.5 124H848L1017.5 113V64.5H1108.25H1199V43H1225.5H1387V94.5V206.5H1370.5V273V347V417.5V488.5V564.5V694L1389.55 705V860.5H1146V854H1089H1021.5H989V827H1146V854V860.5H1389.55V705L1370.5 694V564.5V488.5V417.5V347V273V206.5H1387V94.5V43H1225.5H1199Z" fill="#313131"/>
<path d="M872.5 587V537.5H693.5V576H703V550.5H759.5L775.5 553.5H825V576H842V587H872.5Z" fill="#313131"/>
<path d="M861 719H842H825V766.5H775.5H708V742H693.5V777.5L759.5 781.834L861 788.5V719Z" fill="#313131"/>
<path d="M944 1065V1032V990V892.624H951.503L951 722H898.5V781.834H908V816.5H925V1007.5H908V1044L493.5 1065V1036.5H480V968H452.5V1027H459V1084L944 1065Z" fill="#313131"/>
<path d="M650.5 775.5V740H633.5V748H587L499.5 745V722H459V748H452.5V860.5H480V796.5H493.5V770L650.5 775.5Z" fill="#313131"/>
<path d="M452.5 949.5V880H480V949.5H452.5Z" fill="#313131"/>
<path d="M40 262H405V177.5H382V43H577.5V64.5M577.5 64.5H565V113H468M577.5 64.5H929H1017.5M1089 854V984.25M404 576V667.5H415.5V1018.5H404V1100.5H1109.5V1065H1089V1032V984.25M404 576H381V437.5H404M404 576H426M404 437.5V365H40M404 437.5H426M1387 94.5V43H1225.5H1199V64.5H1108.25M1387 94.5V206.5H1370.5V273M1387 94.5H1247.5M1370.5 273H1263V313.5M1370.5 273V347M1370.5 347H1263M1370.5 347V417.5M1370.5 417.5H1263V373.5M1370.5 417.5V488.5M1370.5 488.5H1263V444.5M1370.5 488.5V564.5M1370.5 564.5V694L1389.55 705V860.5H1146V854M1370.5 564.5H1263V517M1017.5 64.5V113L848 124H798.5L474 138V177.5L555.5 156.5L1108.25 130H1199M1017.5 64.5H1108.25M1108.25 64.5V94.5L1134 86.5L1199 87.25V110M1225.5 110V587H1199H978.5V537.5H1199V130M1225.5 110H1199M1225.5 110V74M1199 110V130M1146 854V827H989V854H1021.5M1146 854H1021.5M1021.5 854V933.5M1021.5 961V984.25M1021.5 1007.5V984.25M1021.5 984.25H1089M1063.5 1032H989H944M944 1032V1065L459 1084V1027H452.5V968H480V1036.5H493.5V1065L908 1044V1007.5H925V816.5H908V781.834H898.5V722H951L951.503 892.624H944V990M944 1032V990M459 670.5V611.5H650.5V685.5M459 587V499.5L474 500.716L551.5 507V515.5H650.5V576M944 990H989M989 990V892.624M989 990V1002M474 208.5V219V461V500.716M872.5 537.5V587H842V576H825V553.5H775.5L759.5 550.5H703V576H693.5V537.5H872.5ZM842 719H861V788.5L759.5 781.834L693.5 777.5V742H708V766.5H775.5H825V719H842ZM650.5 740V775.5L493.5 770V796.5H480V860.5H452.5V748H459V722H499.5V745L587 748H633.5V740H650.5ZM452.5 880V949.5H480V880H452.5Z" stroke="#313131" stroke-width="5"/>
</g>
</g>
<g id="STUDIO 1">
<text id="Studio 1" fill="white" fill-opacity="0.69" style="white-space: pre" xml:space="preserve" font-family="Inter" font-size="20" font-weight="600" letter-spacing="0.02em"><tspan x="738" y="341.273">STUDIO 1</tspan></text>
</g>
<g id="STUDIO 2">
<text id="Studio 1_2" fill="white" fill-opacity="0.69" style="white-space: pre" xml:space="preserve" font-family="Inter" font-size="20" font-weight="600" letter-spacing="0.02em"><tspan x="653" y="907.273">STUDIO 2</tspan></text>
</g>
<g id="FOYER">
<text id="Studio 1_3" fill="white" fill-opacity="0.69" style="white-space: pre" xml:space="preserve" font-family="Inter" font-size="20" font-weight="600" letter-spacing="0.02em"><tspan x="1079" y="704.273">FOYER</tspan></text>
</g>
</g>
<g id="Rectangle">
<rect x="40" y="4" width="132.017" height="30" rx="3" fill="black"/>
<rect x="40.5" y="4.5" width="131.017" height="29" rx="2.5" stroke="black" stroke-opacity="0.2"/>
</g>
<text id="Map Block B - 1st Floor_2" fill="white" style="white-space: pre" xml:space="preserve" font-family="Inter" font-size="11" letter-spacing="0em"><tspan x="46" y="21.5">Map Block B - 1st Floor</tspan></text>
</svg>
