<svg width="351" height="218" viewBox="0 0 351 218" fill="none" xmlns="http://www.w3.org/2000/svg">
<path d="M60.1543 20.928C60.1543 9.36978 69.5241 0 81.0823 0H257.226C268.784 0 278.154 9.36979 278.154 20.928V192.672C278.154 205.812 266.185 215.702 253.28 213.224L77.1362 179.405C67.2796 177.512 60.1543 168.889 60.1543 158.852V20.928Z" fill="white" fill-opacity="0.08"/>
<path d="M292.926 81.5229L230.9 109.903L255.761 106.637L259.871 121.024L349.968 93.1514L271.612 106.158L292.926 81.5229Z" fill="#FFB300"/>
<path d="M57.6055 16.1225L119.632 44.5024L94.7706 41.2366L90.66 55.624L0.563161 27.751L78.9192 40.7581L57.6055 16.1225Z" fill="#FFB300"/>
<circle cx="112.705" cy="23.976" r="7.00516" transform="rotate(-4.61112 112.705 23.976)" fill="#FFB300"/>
<rect width="31.5232" height="5.73085" rx="2.86543" transform="matrix(-0.941992 -0.335634 -0.335634 0.941992 272.457 136.366)" fill="#FFB300"/>
<rect x="78.0732" y="70.9668" width="31.5232" height="5.73085" rx="2.86543" transform="rotate(-19.6111 78.0732 70.9668)" fill="#FFB300"/>
<path d="M234.663 42.1307C213.492 64.0674 182.054 72.7607 162 73.0402L166.49 107.278C206.751 112.757 238.315 98.6108 250.865 89.715C251.999 88.9119 252.46 87.4883 252.108 86.1449L240.96 43.6376C240.236 40.8779 236.644 40.0778 234.663 42.1307Z" fill="#3E3E3E"/>
<path d="M236.017 57.3564C236.239 57.7817 236.724 57.9714 237.095 57.778L238.443 57.0749C238.814 56.8815 238.936 56.3753 238.715 55.9501C238.493 55.5248 238.008 55.3351 237.637 55.5285L236.288 56.2316C235.918 56.425 235.796 56.9312 236.017 57.3564Z" fill="white" fill-opacity="0.69"/>
<path d="M237.01 61.579C236.965 62.0352 237.271 62.4752 237.697 62.568C238.212 62.6832 238.759 62.811 239.277 62.934C239.707 63.0344 240.089 62.7468 240.127 62.2941C240.123 62.2864 240.13 62.2829 240.126 62.2752C240.171 61.8189 239.86 61.3712 239.435 61.2785C238.916 61.1555 238.369 61.0277 237.861 60.9089C237.431 60.8085 237.054 61.1038 237.009 61.56C237.013 61.5678 237.01 61.579 237.01 61.579Z" fill="white" fill-opacity="0.69"/>
<path d="M234.339 51.1607C234.335 51.153 234.328 51.1565 234.324 51.1488C233.924 50.9246 233.47 51.073 233.313 51.4793C233.117 51.975 232.902 52.5001 232.713 52.9922C232.549 53.4021 232.745 53.9096 233.141 54.126C233.145 54.1338 233.152 54.1303 233.156 54.138C233.556 54.3622 234.003 54.2173 234.167 53.8074C234.367 53.3195 234.571 52.7902 234.767 52.2946C234.928 51.8959 234.732 51.3884 234.339 51.1607Z" fill="white" fill-opacity="0.69"/>
<path d="M228.065 58.5527L225.368 59.9591C224.626 60.3458 224.382 61.3581 224.826 62.2087L225.632 63.7551C226.075 64.6056 227.045 64.985 227.787 64.5983L228.461 64.2467L229.671 66.5663C229.892 66.9916 230.377 67.1813 230.748 66.9879C231.119 66.7945 231.241 66.2884 231.019 65.8631L229.81 63.5435L230.484 63.1919L235.065 63.7536L230.227 54.4752L228.065 58.5527Z" fill="white" fill-opacity="0.69"/>
<path d="M234.332 58.2354C233.795 57.207 232.921 56.4831 231.97 56.1726L234.667 61.3453C234.961 60.3955 234.868 59.2638 234.332 58.2354Z" fill="white" fill-opacity="0.69"/>
<path d="M201.925 166.928C210.734 165.443 216.709 156.925 215.204 148L183.172 153.403C184.677 162.328 193.036 168.428 201.925 166.928ZM222.046 116.496L215.204 75.9283C211.003 51.0198 194.353 32.3832 170.519 30.729L169.589 25.2118C168.453 18.4776 162.171 13.9465 155.524 15.0676C148.877 16.1886 144.429 22.5296 145.565 29.2638L146.495 34.781C124.443 44.1746 114.893 67.1468 119.108 92.1364L125.95 132.704L117.385 144.913C113.202 150.875 118.204 159.043 125.331 157.841L230.796 140.053C237.924 138.851 240.049 129.48 234.142 125.22L222.046 116.496Z" fill="#FFB300"/>
<circle cx="201" cy="40" r="16" fill="#141414"/>
<circle cx="201" cy="40" r="11" fill="#FF3123"/>
<path d="M99.2838 101.742L102.154 79.0995C102.488 76.4678 105.531 75.1456 107.748 76.6026C139.658 97.5738 179.89 103.635 199.673 104.167C201.609 104.219 203.176 105.782 203.176 107.719V122.678C203.176 124.54 201.713 126.078 199.852 126.129C158.885 127.256 118.618 113.419 101.192 105.272C99.8465 104.643 99.0969 103.216 99.2838 101.742Z" fill="#3E3E3E"/>
<path d="M111.872 91C121.392 96.9 149.272 108.318 186.129 111.693" stroke="white" stroke-opacity="0.69" stroke-width="3" stroke-linecap="round"/>
<path d="M111 99.7197C117.186 103.553 131.124 109.717 150.24 114.49" stroke="white" stroke-opacity="0.69" stroke-width="3" stroke-linecap="round"/>
<rect x="105.834" y="81.9678" width="1.744" height="20.056" rx="0.872" transform="rotate(8.42548 105.834 81.9678)" fill="white"/>
</svg>
