<svg width="40" height="40" viewBox="0 0 40 40" fill="none" xmlns="http://www.w3.org/2000/svg">
<path d="M20.0022 37.5C21.9509 37.5 23.5452 35.8846 23.5452 33.9103H16.4591C16.4591 35.8846 18.0358 37.5 20.0022 37.5ZM30.6314 26.7308V17.7564C30.6314 12.2462 27.7261 7.63333 22.6595 6.41282V5.19231C22.6595 3.70256 21.4726 2.5 20.0022 2.5C18.5318 2.5 17.3449 3.70256 17.3449 5.19231V6.41282C12.2606 7.63333 9.37299 12.2282 9.37299 17.7564V26.7308L7.08772 29.0462C5.97165 30.1769 6.75113 32.1154 8.32779 32.1154H31.6589C33.2355 32.1154 34.0327 30.1769 32.9166 29.0462L30.6314 26.7308Z" fill="#FFB300"/>
<circle cx="27.8125" cy="10" r="5.625" fill="white"/>
<circle cx="27.8125" cy="10" r="3.75" fill="#FF3123"/>
</svg>
