<svg width="108" height="108" viewBox="0 0 108 108" fill="none" xmlns="http://www.w3.org/2000/svg">
<rect width="108" height="108" rx="54" fill="white" fill-opacity="0.18"/>
<path fill-rule="evenodd" clip-rule="evenodd" d="M60.1721 76.2568C60.1718 79.4156 57.6209 82 54.5031 82C51.3572 81.9998 48.8344 79.4155 48.8342 76.2568H60.1721ZM54.5031 26C56.8557 26 58.755 27.9241 58.7551 30.3076V32.2607C66.8615 34.2136 71.5099 41.5938 71.51 50.4102V64.7695L75.1662 68.4736C76.9518 70.2828 75.6769 73.3844 73.1545 73.3848H35.8244C33.3018 73.3848 32.0543 70.2829 33.84 68.4736L37.4963 64.7695V50.4102C37.4963 41.5651 42.1173 34.2136 50.2522 32.2607V30.3076C50.2522 27.9242 52.1507 26.0002 54.5031 26Z" fill="white" fill-opacity="0.48"/>
</svg>
