<svg width="205" height="128" viewBox="0 0 205 128" fill="none" xmlns="http://www.w3.org/2000/svg">
<g clip-path="url(#clip0_4478_157759)">
<path d="M34.5381 79.2456C36.7622 77.1604 39.6967 76 42.7454 76H217.885C221.511 76 223.266 80.4381 220.621 82.9181L199.462 102.754C197.238 104.84 194.303 106 191.255 106H16.1151C12.489 106 10.7339 101.562 13.3794 99.0819L34.5381 79.2456Z" fill="#F9FFD3"/>
<ellipse cx="117" cy="93" rx="36" ry="8" fill="#728806"/>
<path d="M49.5 94.0496L57.0173 95.8912C58.3939 96.2287 60.0785 95.7298 59.7162 95.0988L57.7237 91.6358L64.3715 89.3027C65.5852 88.8772 64.9331 88.0701 63.339 88.0188L54.59 87.7179L51.1665 84.4457C50.5506 83.8514 48.4494 83.8514 47.8335 84.4457L44.41 87.7106L35.661 88.0114C34.0669 88.0628 33.4148 88.8698 34.6285 89.2954L41.2763 91.6285L39.2838 95.0915C38.9215 95.7224 40.6061 96.2213 41.9827 95.8838L49.5 94.0496Z" fill="#728806"/>
<path d="M15.5381 117.246C17.7622 115.16 20.6967 114 23.7454 114H198.885C202.511 114 204.266 118.438 201.621 120.918L180.462 140.754C178.238 142.84 175.303 144 172.255 144H-2.88488C-6.51102 144 -8.26605 139.562 -5.62064 137.082L15.5381 117.246Z" fill="#F9FFD3"/>
<path d="M35.5 130.05L43.0173 131.891C44.3939 132.229 46.0785 131.73 45.7162 131.099L43.7237 127.636L50.3715 125.303C51.5852 124.877 50.9331 124.07 49.339 124.019L40.59 123.718L37.1665 120.446C36.5506 119.851 34.4494 119.851 33.8335 120.446L30.41 123.711L21.661 124.011C20.0669 124.063 19.4148 124.87 20.6285 125.295L27.2763 127.628L25.2838 131.091C24.9215 131.722 26.6061 132.221 27.9827 131.884L35.5 130.05Z" fill="#728806"/>
<path d="M105.471 62.5508C110.58 53.7005 123.355 53.7005 128.465 62.5508L136.706 76.8262C141.816 85.6763 135.429 96.7389 125.21 96.7393H108.726C98.5063 96.7392 92.119 85.6764 97.2285 76.8262L105.471 62.5508Z" fill="#F9FFD3" stroke="#728806" stroke-width="2"/>
<circle cx="117" cy="41" r="11" fill="#F9FFD3" stroke="#728806" stroke-width="2"/>
</g>
<defs>
<clipPath id="clip0_4478_157759">
<rect width="205" height="128" fill="white"/>
</clipPath>
</defs>
</svg>
