<svg width="177" height="128" viewBox="0 0 177 128" fill="none" xmlns="http://www.w3.org/2000/svg">
<path d="M49.5 94.0496L57.0173 95.8912C58.3939 96.2287 60.0785 95.7298 59.7162 95.0988L57.7237 91.6358L64.3715 89.3027C65.5852 88.8772 64.9331 88.0701 63.339 88.0188L54.59 87.7179L51.1665 84.4457C50.5506 83.8514 48.4494 83.8514 47.8335 84.4457L44.41 87.7106L35.661 88.0114C34.0669 88.0628 33.4148 88.8698 34.6285 89.2954L41.2763 91.6285L39.2838 95.0915C38.9215 95.7224 40.6061 96.2213 41.9827 95.8838L49.5 94.0496Z" fill="#9462FA"/>
<ellipse cx="116" cy="120" rx="29" ry="6" fill="#F0EFFF"/>
<path d="M105.976 89.1582C110.416 81.4667 121.518 81.4668 125.959 89.1582L133.122 101.564C137.563 109.256 132.012 118.87 123.131 118.87H108.805C99.9234 118.87 94.3728 109.256 98.8135 101.564L105.976 89.1582Z" fill="#F0EFFF" stroke="#9462FA" stroke-width="1.73814"/>
<circle cx="115.996" cy="70.4288" r="9.55978" fill="#F0EFFF" stroke="#9462FA" stroke-width="1.73814"/>
<ellipse cx="56" cy="108" rx="37" ry="8" fill="#F0EFFF"/>
<path d="M44.4707 72.5508C49.5804 63.7005 62.3551 63.7005 67.4648 72.5508L75.7061 86.8262C80.8157 95.6763 74.4291 106.739 64.21 106.739H47.7256C37.5063 106.739 31.119 95.6764 36.2285 86.8262L44.4707 72.5508Z" fill="#F0EFFF" stroke="#9462FA" stroke-width="2"/>
<path d="M56.465 57.9067L63.9653 62.4707C65.3389 63.3072 67.0197 62.0707 66.6582 60.5069L64.6702 51.9244L71.303 46.142C72.5139 45.0874 71.8632 43.0872 70.2728 42.96L61.5435 42.2144L58.1277 34.1046C57.5133 32.6318 55.4168 32.6318 54.8023 34.1046L51.3865 42.1963L42.6572 42.9418C41.0668 43.0691 40.4162 45.0692 41.6271 46.1239L48.2599 51.9062L46.2718 60.4887C45.9104 62.0525 47.5912 63.289 48.9647 62.4526L56.465 57.9067Z" fill="#F0EFFF"/>
<path d="M84 76.4998L97.9902 67.4997L97 65.4998L84.9949 67.4997L72.4998 76.4998L73.9998 79.0523L84 76.4998Z" fill="#F0EFFF"/>
<path d="M92.5003 83.4997L102 91.4996L102 93.4998L93.0003 96.4997L83.0559 87.4997L83.0559 85.5887L92.5003 83.4997Z" fill="#F0EFFF"/>
<path d="M84.1339 85.9215L93.4414 93.4559L100.926 91.161L92.5055 84.0697L84.1339 85.9215Z" fill="#9462FA"/>
<ellipse cx="86.6412" cy="71.107" rx="0.744116" ry="1.5" transform="rotate(75 86.6412 71.107)" fill="#9462FA"/>
</svg>
