<svg width="256" height="117" viewBox="0 0 256 117" fill="none" xmlns="http://www.w3.org/2000/svg">
<rect x="5.40039" y="35" width="234" height="61" rx="12" transform="rotate(5.07893 5.40039 35)" fill="#161616"/>
<rect x="25.8311" y="64.9268" width="8" height="145.441" rx="4" transform="rotate(-84.9211 25.8311 64.9268)" fill="#404040"/>
<rect x="24.769" y="76.8799" width="8" height="58" rx="4" transform="rotate(-84.9211 24.769 76.8799)" fill="#404040"/>
<rect x="12.3066" y="47.6611" width="4" height="37" rx="2" transform="rotate(5.07893 12.3066 47.6611)" fill="#404040"/>
<path d="M204.129 93.755L210.649 98.5342C211.842 99.41 213.487 98.4184 213.282 96.9612L212.152 88.9631L218.714 84.2254C219.912 83.3614 219.476 81.4821 218.026 81.2361L210.068 79.8428L207.588 72.1597C207.143 70.7649 205.217 70.5937 204.533 71.8883L200.739 78.9969L192.66 78.9649C191.189 78.9513 190.429 80.7243 191.456 81.7861L197.079 87.6067L194.557 95.2802C194.098 96.6784 195.541 97.9445 196.871 97.293L204.129 93.755Z" fill="#404040"/>
<rect x="17.4995" y="1.5" width="237" height="64" rx="13.5" fill="#1F1F1F" stroke="black" stroke-width="3"/>
<rect x="41.9995" y="31.001" width="8" height="145.441" rx="4" transform="rotate(-90 41.9995 31.001)" fill="#5C5C5C"/>
<rect x="41.9995" y="43.001" width="8" height="58" rx="4" transform="rotate(-90 41.9995 43.001)" fill="#5C5C5C"/>
<rect x="26.9995" y="15" width="4" height="37" rx="2" fill="#5C5C5C"/>
<path d="M222.15 43.9307L229.066 48.1141C230.333 48.8807 231.883 47.7474 231.55 46.3141L229.716 38.4474L235.833 33.1474C236.95 32.1807 236.35 30.3474 234.883 30.2307L226.833 29.5474L223.683 22.1141C223.116 20.7641 221.183 20.7641 220.616 22.1141L217.466 29.5307L209.416 30.2141C207.95 30.3307 207.35 32.1641 208.466 33.1307L214.583 38.4307L212.75 46.2974C212.416 47.7307 213.966 48.8641 215.233 48.0974L222.15 43.9307Z" fill="#5C5C5C"/>
</svg>
