<svg width="28" height="28" viewBox="0 0 28 28" fill="none" xmlns="http://www.w3.org/2000/svg">
<path d="M13.9997 2.33301C7.55967 2.33301 2.33301 7.55967 2.33301 13.9997C2.33301 20.4397 7.55967 25.6663 13.9997 25.6663C20.4397 25.6663 25.6663 20.4397 25.6663 13.9997C25.6663 7.55967 20.4397 2.33301 13.9997 2.33301ZM13.9997 23.333C8.85468 23.333 4.66634 19.1447 4.66634 13.9997C4.66634 8.85468 8.85468 4.66634 13.9997 4.66634C19.1447 4.66634 23.333 8.85468 23.333 13.9997C23.333 19.1447 19.1447 23.333 13.9997 23.333ZM12.833 18.6663H15.1663V20.9997H12.833V18.6663ZM14.7113 7.04634C12.308 6.69634 10.1847 8.17801 9.54301 10.3013C9.33301 10.978 9.84634 11.6663 10.558 11.6663H10.7913C11.2697 11.6663 11.6547 11.328 11.818 10.8847C12.1913 9.84634 13.2997 9.13468 14.5013 9.39134C15.6097 9.62468 16.4263 10.7097 16.333 11.8413C16.2163 13.4047 14.443 13.743 13.4747 15.2013C13.4747 15.213 13.463 15.213 13.463 15.2247C13.4513 15.248 13.4397 15.2597 13.428 15.283C13.323 15.458 13.218 15.6563 13.1363 15.8663C13.1247 15.9013 13.1013 15.9247 13.0897 15.9597C13.078 15.983 13.078 16.0063 13.0663 16.0413C12.9263 16.438 12.833 16.9163 12.833 17.4997H15.1663C15.1663 17.0097 15.2947 16.6013 15.493 16.2513C15.5163 16.2163 15.528 16.1813 15.5513 16.1463C15.6447 15.983 15.7613 15.8313 15.878 15.6913C15.8897 15.6797 15.9013 15.6563 15.913 15.6447C16.0297 15.5047 16.158 15.3763 16.298 15.248C17.418 14.1863 18.9347 13.323 18.6197 11.0947C18.3397 9.06468 16.7413 7.34967 14.7113 7.04634Z" fill="white"/>
</svg>
