<svg width="191" height="128" viewBox="0 0 191 128" fill="none" xmlns="http://www.w3.org/2000/svg">
<g clip-path="url(#clip0_4478_157733)">
<path d="M125.555 93.5693C128.833 87.8916 137.027 87.8916 140.306 93.5693L148.209 107.259C151.487 112.937 147.389 120.034 140.833 120.034H125.026C118.47 120.034 114.373 112.937 117.651 107.259L125.555 93.5693Z" fill="#FFD0F3" stroke="#C600AA" stroke-width="2"/>
<circle cx="133.182" cy="77.8059" r="8.83616" fill="#FFD0F3" stroke="#C600AA" stroke-width="2"/>
<path d="M125.555 93.5693C128.833 87.8916 137.027 87.8916 140.306 93.5693L148.209 107.259C151.487 112.937 147.389 120.034 140.833 120.034H125.026C118.47 120.034 114.373 112.937 117.651 107.259L125.555 93.5693Z" fill="#FFD0F3" stroke="#C600AA" stroke-width="2"/>
<ellipse cx="65" cy="114" rx="37" ry="8" fill="#FFD0F3"/>
<path d="M164.012 112.599C167.29 106.921 175.485 106.921 178.763 112.599L186.666 126.288C189.944 131.966 185.846 139.063 179.29 139.063H163.483C156.927 139.063 152.83 131.966 156.108 126.288L164.012 112.599Z" fill="#FFD0F3" stroke="#C600AA" stroke-width="2"/>
<circle cx="171.638" cy="96.8362" r="8.83616" fill="#FFD0F3" stroke="#C600AA" stroke-width="2"/>
<path d="M164.012 112.599C167.29 106.921 175.485 106.921 178.763 112.599L186.666 126.288C189.944 131.966 185.846 139.063 179.29 139.063H163.483C156.927 139.063 152.83 131.966 156.108 126.288L164.012 112.599Z" fill="#FFD0F3" stroke="#C600AA" stroke-width="2"/>
<path d="M53.1982 82.5508C58.3079 73.7005 71.0827 73.7005 76.1924 82.5508L84.4336 96.8262C89.5432 105.676 83.1567 116.739 72.9375 116.739H56.4531C46.2338 116.739 39.8465 105.676 44.9561 96.8262L53.1982 82.5508Z" fill="#FFD0F3" stroke="#C600AA" stroke-width="2"/>
<path d="M65.465 67.9067L72.9653 72.4707C74.3389 73.3072 76.0197 72.0707 75.6582 70.5069L73.6702 61.9244L80.303 56.142C81.5139 55.0874 80.8632 53.0872 79.2728 52.96L70.5435 52.2144L67.1277 44.1046C66.5133 42.6318 64.4168 42.6318 63.8023 44.1046L60.3865 52.1963L51.6572 52.9418C50.0668 53.0691 49.4162 55.0692 50.6271 56.1239L57.2599 61.9062L55.2718 70.4887C54.9104 72.0525 56.5912 73.289 57.9647 72.4526L65.465 67.9067Z" fill="#FFD0F3"/>
<path d="M99 64.5C99 63.1193 100.119 62 101.5 62C102.881 62 104 63.1193 104 64.5V130H99V64.5Z" fill="#FFD0F3" stroke="#C600AA" stroke-width="2"/>
<path d="M99.7649 60.8754L108.25 69.3607C109.422 70.5322 109.422 72.4317 108.25 73.6033C107.079 74.7749 105.179 74.7749 104.008 73.6033L95.5222 65.118C94.3507 63.9464 94.3507 62.047 95.5222 60.8754C96.6938 59.7038 98.5933 59.7038 99.7649 60.8754Z" fill="#FFD0F3" stroke="#C600AA" stroke-width="2"/>
<circle cx="95" cy="60" r="6" fill="#FFD0F3" stroke="#C600AA" stroke-width="2"/>
</g>
<defs>
<clipPath id="clip0_4478_157733">
<rect width="191" height="128" fill="white"/>
</clipPath>
</defs>
</svg>
