<svg width="338" height="250" viewBox="0 0 338 250" fill="none" xmlns="http://www.w3.org/2000/svg">
<path d="M44 24C44 10.7452 54.7452 0 68 0H270C283.255 0 294 10.7452 294 24V220.954C294 236.023 280.274 247.365 265.475 244.523L63.4747 205.739C52.1712 203.569 44 193.68 44 182.17V24Z" fill="#141414"/>
<path d="M251.555 112.569C254.833 106.892 263.027 106.892 266.306 112.569L274.209 126.259C277.487 131.937 273.389 139.034 266.833 139.034H251.026C244.47 139.034 240.373 131.937 243.651 126.259L251.555 112.569Z" fill="#1F1F1F" stroke="white" stroke-width="2"/>
<circle cx="259.182" cy="96.8059" r="9.83616" fill="#C600AA"/>
<path d="M250.688 112.069C254.351 105.725 263.509 105.725 267.172 112.069L275.075 125.758C278.738 132.103 274.16 140.034 266.833 140.034H251.027C243.701 140.034 239.122 132.103 242.785 125.758L250.688 112.069Z" fill="#C600AA"/>
<path d="M238.209 171.793L323.08 136.507V129.833L118.51 114.097L7.87598 144.432V153.377L238.209 171.793Z" fill="#1F1F1F"/>
<path d="M318.746 130.495L238.057 162.449L13.3711 144.484L115.948 114.512L318.746 130.495Z" fill="#9462FA" stroke="#1F1F1F" stroke-width="2"/>
<path d="M117 116.5L130.5 118.001L108.5 125.5L92.9998 124L117 116.5Z" fill="#F2EFFF"/>
<path d="M117 121.473L130.5 122.973L108.5 130.473L92.9998 128.973L117 121.473Z" fill="#F2EFFF"/>
<path d="M271.156 137.569L292.057 139.892L257.997 151.503L234 149.18L271.156 137.569Z" fill="#F2EFFF"/>
<path d="M242.156 138.569L263.057 140.892L228.997 152.503L205 150.18L242.156 138.569Z" fill="#F2EFFF"/>
<path d="M244.808 131.724L258.762 133.275L236.021 141.027L220 139.477L244.808 131.724Z" fill="#F2EFFF"/>
<ellipse cx="173.869" cy="135.506" rx="45.766" ry="8.37379" fill="#141414"/>
<circle cx="42.6399" cy="141.836" r="9.83616" fill="#F2EFFF"/>
<path d="M34.1452 156.947C37.8083 150.603 46.966 150.603 50.6291 156.947L58.5324 170.636C62.1955 176.981 57.6166 184.912 50.2905 184.912H34.4838C27.1577 184.912 22.5788 176.981 26.2419 170.636L34.1452 156.947Z" fill="#F2EFFF"/>
<path d="M280.012 142.599C283.29 136.921 291.485 136.921 294.763 142.599L302.666 156.288C305.944 161.966 301.846 169.063 295.29 169.063H279.483C272.927 169.063 268.83 161.966 272.108 156.288L280.012 142.599Z" fill="#1F1F1F" stroke="white" stroke-width="2"/>
<circle cx="287.638" cy="126.836" r="9.83616" fill="#C6FFEA"/>
<path d="M279.145 142.099C282.808 135.754 291.966 135.754 295.629 142.099L303.532 155.788C307.195 162.132 302.617 170.063 295.29 170.063H279.484C272.158 170.063 267.579 162.132 271.242 155.788L279.145 142.099Z" fill="#C6FFEA"/>
<circle cx="100.836" cy="142.248" r="9.83616" fill="#F9FFD3"/>
<path d="M92.1452 157.512C95.8083 151.167 104.966 151.167 108.629 157.512L116.532 171.201C120.195 177.545 115.617 185.476 108.29 185.476H92.4838C85.1577 185.476 80.5788 177.545 84.2419 171.201L92.1452 157.512Z" fill="#F9FFD3"/>
<path d="M160.332 104.051C165.827 94.5339 179.563 94.5339 185.058 104.051L193.3 118.326C198.795 127.843 191.926 139.739 180.937 139.739H164.453C153.464 139.739 146.596 127.843 152.09 118.326L160.332 104.051Z" fill="white"/>
<path d="M173.465 84.9067L180.965 89.4707C182.339 90.3072 184.02 89.0707 183.658 87.5069L181.67 78.9244L188.303 73.142C189.514 72.0874 188.863 70.0872 187.273 69.96L178.544 69.2144L175.128 61.1046C174.513 59.6318 172.417 59.6318 171.802 61.1046L168.386 69.1963L159.657 69.9418C158.067 70.0691 157.416 72.0692 158.627 73.1239L165.26 78.9062L163.272 87.4887C162.91 89.0525 164.591 90.289 165.965 89.4526L173.465 84.9067Z" fill="#FFB300"/>
<path d="M146.469 92.4713C148.038 92.9003 148.962 94.5197 148.533 96.0884L144.811 109.699C144.382 111.268 142.762 112.192 141.193 111.763C139.625 111.334 138.701 109.714 139.13 108.146L142.852 94.5349C143.281 92.9662 144.9 92.0423 146.469 92.4713Z" fill="white"/>
<circle cx="146.707" cy="92.5489" r="8" transform="rotate(60.2951 146.707 92.5489)" fill="white" stroke="#141414" stroke-width="2"/>
<path d="M237.536 64.2435L196.707 82.9247L213.072 80.775L215.778 90.2455L275.084 71.898L223.506 80.46L237.536 64.2435Z" fill="#FFB300"/>
<circle cx="4.61118" cy="4.61118" r="4.61118" transform="matrix(-0.996763 -0.0803923 -0.0803923 0.996763 206.233 65.1875)" fill="#FFB300"/>
<rect width="20.7503" height="3.77236" rx="1.88618" transform="matrix(-0.941992 -0.335634 -0.335634 0.941992 224.062 100.345)" fill="#FFB300"/>
</svg>
