<svg width="320" height="318" viewBox="0 0 320 318" fill="none" xmlns="http://www.w3.org/2000/svg">
<path d="M20.5 84.4804C20.5 69.5995 33.9027 58.3053 48.5683 60.8277L250.568 95.5717C262.084 97.5525 270.5 107.539 270.5 119.224V282C270.5 295.255 259.755 306 246.5 306H44.5C31.2452 306 20.5 295.255 20.5 282V84.4804Z" fill="#141414"/>
<path d="M83.8592 78.3613L43.9585 67.6699L11.1027 190.289L51.0034 200.981L62.9103 214.581L136.666 234.344L210.422 254.107L226.929 248.12L268.039 259.135L300.895 136.516L259.785 125.5L241.207 139.215L167.451 119.452L93.6955 99.6889L83.8592 78.3613Z" fill="#1F1F1F"/>
<path d="M44.9937 63.8057L84.8943 74.497L94.7307 95.8246L168.487 115.587L242.242 135.35L260.82 121.636L301.93 132.652L269.074 255.271L227.964 244.256L211.457 250.242L137.701 230.479L63.9455 210.717L52.0386 197.116L12.1379 186.425L44.9937 63.8057Z" fill="#9462FA"/>
<rect x="161.297" y="143.628" width="47" height="56" transform="rotate(15 161.297 143.628)" fill="#F9FFD3"/>
<rect x="195.567" y="197.326" width="24" height="29" transform="rotate(15 195.567 197.326)" fill="#9462FA"/>
<ellipse cx="184" cy="162.501" rx="11.5" ry="5.5" fill="#141414"/>
<path d="M190.564 43.4395C209.144 43.4395 224.207 58.3824 224.207 76.8154C224.207 95.2485 212.768 124.18 190.564 149.748C168.76 124.407 156.923 95.2484 156.923 76.8154C156.923 58.3825 171.985 43.4397 190.564 43.4395ZM190.564 56.8965C179.417 56.8967 170.38 65.9334 170.38 77.0811C170.38 88.2289 179.417 97.2664 190.564 97.2666C201.712 97.2666 210.75 88.229 210.75 77.0811C210.75 65.9333 201.712 56.8965 190.564 56.8965Z" fill="#1F1F1F"/>
<path d="M190.565 149.748L185.182 152.44V110.724L190.565 105.341V149.748Z" fill="#1F1F1F"/>
<path d="M185.182 46.1309C203.762 46.1309 218.824 61.0738 218.824 79.5068C218.824 97.9399 207.385 126.872 185.182 152.439C163.377 127.098 151.54 97.9398 151.54 79.5068C151.54 61.0739 166.602 46.1311 185.182 46.1309ZM185.183 59.5879C174.035 59.5879 164.997 68.6246 164.997 79.7725C164.997 90.9204 174.035 99.958 185.183 99.958C196.33 99.9578 205.367 90.9203 205.367 79.7725C205.367 68.6248 196.33 59.5881 185.183 59.5879Z" fill="#C600AA"/>
<rect x="94.9258" y="109.279" width="26" height="32" transform="rotate(15 94.9258 109.279)" fill="#F9FFD3"/>
<rect x="263.782" y="143" width="26" height="32" transform="rotate(15 263.782 143)" fill="#F9FFD3"/>
<rect x="25.9575" y="157.542" width="17.1326" height="21.0863" transform="rotate(15 25.9575 157.542)" fill="#F9FFD3"/>
<path d="M84.2847 92.9688L89.8727 101.092L84.6704 120.507L78.5906 114.219L84.2847 92.9688Z" fill="#F9FFD3"/>
<path d="M217.418 239.416L226.284 237.236L232.133 215.407L223.112 218.166L217.418 239.416Z" fill="#F9FFD3"/>
<rect x="110.205" y="152.713" width="47" height="56" transform="rotate(15 110.205 152.713)" fill="#F9FFD3"/>
<ellipse cx="49.5" cy="277" rx="46" ry="41" fill="#1F1F1F"/>
<ellipse cx="49.5" cy="269" rx="46" ry="41" fill="#9462FA"/>
<ellipse cx="49.5" cy="269" rx="34" ry="30" fill="#1F1F1F"/>
<path d="M95.5 237L47.5 258L60 268.5L95.5 237Z" fill="#C600AA"/>
<path d="M0 302.5L47.5 258L60 268.5L0 302.5Z" fill="#F9FFD3"/>
</svg>
