<svg width="32" height="32" viewBox="0 0 32 32" fill="none" xmlns="http://www.w3.org/2000/svg">
<path d="M27.0735 8.1999L27.7269 6.78656L29.1402 6.13323C29.6602 5.89323 29.6602 5.1599 29.1402 4.9199L27.7269 4.26656L27.0735 2.86656C26.8335 2.34656 26.1002 2.34656 25.8602 2.86656L25.2069 4.2799L23.8069 4.93323C23.2869 5.17323 23.2869 5.90656 23.8069 6.14656L25.2202 6.7999L25.8735 8.1999C26.1002 8.7199 26.8469 8.7199 27.0735 8.1999Z" fill="white"/>
<path d="M11.7402 8.1999L12.3935 6.78656L13.8069 6.13323C14.3269 5.89323 14.3269 5.1599 13.8069 4.9199L12.3935 4.2799L11.7402 2.86656C11.5135 2.34656 10.7669 2.34656 10.5402 2.86656L9.88688 4.2799L8.47355 4.93323C7.95355 5.17323 7.95355 5.90656 8.47355 6.14656L9.88688 6.7999L10.5402 8.1999C10.7669 8.7199 11.5135 8.7199 11.7402 8.1999Z" fill="white"/>
<path d="M25.8735 18.1999L25.2202 19.6132L23.8069 20.2666C23.2869 20.5066 23.2869 21.2399 23.8069 21.4799L25.2202 22.1332L25.8735 23.5466C26.1135 24.0666 26.8469 24.0666 27.0869 23.5466L27.7402 22.1332L29.1402 21.4666C29.6602 21.2266 29.6602 20.4932 29.1402 20.2532L27.7269 19.5999L27.0735 18.1866C26.8469 17.6799 26.1002 17.6799 25.8735 18.1999Z" fill="white"/>
<path d="M23.4202 12.3599L19.6469 8.58656C19.1269 8.06656 18.2869 8.06656 17.7669 8.58656L2.86021 23.4799C2.34021 23.9999 2.34021 24.8399 2.86021 25.3599L6.63355 29.1332C7.15355 29.6532 7.99355 29.6532 8.51355 29.1332L23.4069 14.2399C23.9402 13.7332 23.9402 12.8799 23.4202 12.3599ZM18.7535 15.1466L16.8735 13.2666L18.7135 11.4266L20.5935 13.3066L18.7535 15.1466Z" fill="white"/>
</svg>
