<svg width="32" height="32" viewBox="0 0 32 32" fill="none" xmlns="http://www.w3.org/2000/svg">
<path d="M17.8857 4.68556L4.6864 17.8849C3.64931 18.922 3.64931 20.619 4.6864 21.6561L10.3433 27.313C11.3803 28.3501 13.0774 28.3501 14.1145 27.313L27.3138 14.1137C28.3509 13.0766 28.3509 11.3795 27.3138 10.3424L21.657 4.68556C20.6199 3.64847 18.9228 3.64847 17.8857 4.68556ZM25.4282 12.228L12.2289 25.4274L6.57202 19.7705L19.7713 6.57118L25.4282 12.228Z" fill="white"/>
<path d="M10.9779 11.5934L3.82292 18.7484C3.26074 19.3105 3.64931 20.619 4.6864 21.6561L10.3433 27.313C11.3803 28.3501 12.6888 28.7386 13.251 28.1765L20.406 21.0215C20.9681 20.4593 20.5796 19.1509 19.5425 18.1138L13.8856 12.4569C12.8485 11.4198 11.54 11.0313 10.9779 11.5934Z" fill="white"/>
</svg>
