<svg width="28" height="28" viewBox="0 0 28 28" fill="none" xmlns="http://www.w3.org/2000/svg">
<path d="M18.6667 12.833H9.33333C8.69167 12.833 8.16667 13.358 8.16667 13.9997C8.16667 14.6413 8.69167 15.1663 9.33333 15.1663H18.6667C19.3083 15.1663 19.8333 14.6413 19.8333 13.9997C19.8333 13.358 19.3083 12.833 18.6667 12.833ZM22.1667 4.66634H21V3.49967C21 2.85801 20.475 2.33301 19.8333 2.33301C19.1917 2.33301 18.6667 2.85801 18.6667 3.49967V4.66634H9.33333V3.49967C9.33333 2.85801 8.80833 2.33301 8.16667 2.33301C7.525 2.33301 7 2.85801 7 3.49967V4.66634H5.83333C4.53833 4.66634 3.5 5.71634 3.5 6.99967V23.333C3.5 24.6163 4.53833 25.6663 5.83333 25.6663H22.1667C23.45 25.6663 24.5 24.6163 24.5 23.333V6.99967C24.5 5.71634 23.45 4.66634 22.1667 4.66634ZM21 23.333H7C6.35833 23.333 5.83333 22.808 5.83333 22.1663V10.4997H22.1667V22.1663C22.1667 22.808 21.6417 23.333 21 23.333ZM15.1667 17.4997H9.33333C8.69167 17.4997 8.16667 18.0247 8.16667 18.6663C8.16667 19.308 8.69167 19.833 9.33333 19.833H15.1667C15.8083 19.833 16.3333 19.308 16.3333 18.6663C16.3333 18.0247 15.8083 17.4997 15.1667 17.4997Z" fill="white" fill-opacity="0.48"/>
</svg>
