<svg width="32" height="32" viewBox="0 0 32 32" fill="none" xmlns="http://www.w3.org/2000/svg">
<path d="M23.3332 5.33366V4.00033C23.3332 3.26699 22.7332 2.66699 21.9998 2.66699H5.99984C5.2665 2.66699 4.6665 3.26699 4.6665 4.00033V9.33366C4.6665 10.067 5.2665 10.667 5.99984 10.667H21.9998C22.7332 10.667 23.3332 10.067 23.3332 9.33366V8.00033H24.6665V13.3337H12.6665C11.9332 13.3337 11.3332 13.9337 11.3332 14.667V28.0003C11.3332 28.7337 11.9332 29.3337 12.6665 29.3337H15.3332C16.0665 29.3337 16.6665 28.7337 16.6665 28.0003V16.0003H25.9998C26.7332 16.0003 27.3332 15.4003 27.3332 14.667V6.66699C27.3332 5.93366 26.7332 5.33366 25.9998 5.33366H23.3332Z" fill="white"/>
</svg>
