<svg width="28" height="28" viewBox="0 0 28 28" fill="none" xmlns="http://www.w3.org/2000/svg">
<path d="M17.0975 5.81015L11.2642 3.76849C10.7742 3.59349 10.2375 3.59349 9.74753 3.75682L5.09253 5.32015C4.14753 5.64682 3.50586 6.53349 3.50586 7.53682V21.3618C3.50586 23.0068 5.15086 24.1268 6.67919 23.5318L10.0975 22.2018C10.3542 22.0968 10.6459 22.0968 10.9025 22.1902L16.7359 24.2318C17.2259 24.4068 17.7625 24.4068 18.2525 24.2435L22.9075 22.6802C23.8525 22.3652 24.4942 21.4668 24.4942 20.4635V6.63849C24.4942 4.99349 22.8492 3.87349 21.3209 4.46849L17.9025 5.79849C17.6459 5.89182 17.3659 5.90349 17.0975 5.81015ZM17.5059 22.0385L10.5059 19.5768V5.96182L17.5059 8.42349V22.0385Z" fill="white" fill-opacity="0.48"/>
</svg>
