<svg width="16" height="16" viewBox="0 0 16 16" fill="none" xmlns="http://www.w3.org/2000/svg">
<path d="M3.85095 11.7404C3.57095 12.0204 3.10429 12.0004 2.85095 11.687C1.94429 10.547 1.39762 9.10038 1.39762 7.52704C1.39762 6.16704 1.80429 4.90704 2.50429 3.85371L1.46429 2.81371C1.20429 2.55371 1.20429 2.13371 1.46429 1.87371C1.72429 1.61371 2.14429 1.61371 2.40429 1.87371L13.7176 13.187C13.9776 13.447 13.9776 13.867 13.7176 14.127C13.4576 14.387 13.0376 14.387 12.7776 14.127L5.49095 6.83371C5.43095 7.05371 5.39762 7.28704 5.39762 7.52704C5.39762 8.06038 5.55762 8.56038 5.82429 8.97371C6.00429 9.24704 5.98429 9.60038 5.75762 9.83371C5.47095 10.1204 4.97762 10.1004 4.75095 9.76038C4.31762 9.12704 4.06429 8.35371 4.06429 7.52704C4.06429 6.90704 4.20429 6.32704 4.45095 5.80038L3.47095 4.82038C2.99762 5.61371 2.73095 6.54038 2.73095 7.52704C2.73095 8.78704 3.17095 9.94704 3.90429 10.8604C4.11762 11.1204 4.09095 11.5004 3.85095 11.7404ZM10.371 5.22038C10.1376 5.45371 10.1243 5.80704 10.2976 6.08038C10.571 6.49371 10.731 6.99371 10.731 7.52704C10.731 7.76704 10.6976 8.00038 10.6376 8.22038L11.671 9.25371C11.9243 8.72704 12.0643 8.14704 12.0643 7.52704C12.0643 6.70038 11.811 5.92704 11.3776 5.28704C11.151 4.95371 10.6643 4.92704 10.371 5.22038ZM12.2776 3.31371C12.0376 3.55371 12.011 3.92704 12.2243 4.19371C12.9576 5.10704 13.3976 6.26704 13.3976 7.52704C13.3976 8.51371 13.131 9.44038 12.6576 10.2337L13.6243 11.2004C14.3243 10.147 14.731 8.88704 14.731 7.52704C14.731 5.95371 14.1843 4.50704 13.2776 3.36704C13.0243 3.05371 12.5576 3.03371 12.2776 3.31371Z" fill="black"/>
</svg>
