<svg width="32" height="32" viewBox="0 0 32 32" fill="none" xmlns="http://www.w3.org/2000/svg">
<path d="M16.6216 10.667C13.0882 10.667 9.88825 11.987 7.42158 14.1337L4.90158 11.6137C4.06158 10.7737 2.62158 11.3603 2.62158 12.547V20.0003C2.62158 20.7337 3.22158 21.3337 3.95492 21.3337H11.4082C12.5949 21.3337 13.1949 19.8937 12.3549 19.0537L9.80825 16.507C11.6616 14.9603 14.0216 14.0003 16.6349 14.0003C20.8482 14.0003 24.4882 16.4537 26.2216 20.0003C26.5816 20.747 27.4349 21.1203 28.2216 20.8537C29.1682 20.547 29.6482 19.467 29.2216 18.5603C26.9282 13.8937 22.1549 10.667 16.6216 10.667Z" fill="white"/>
</svg>
