<svg width="44" height="44" viewBox="0 0 44 44" fill="none" xmlns="http://www.w3.org/2000/svg">
<rect x="1" y="1" width="42" height="42" rx="21" fill="#3561FF"/>
<rect x="1" y="1" width="42" height="42" rx="21" stroke="white" stroke-width="2"/>
<path d="M30 29H29V15C29 14.45 28.55 14 28 14H24C24 13.45 23.55 13 23 13H16C15.45 13 15 13.45 15 14V29H14C13.45 29 13 29.45 13 30C13 30.55 13.45 31 14 31H23C23.55 31 24 30.55 24 30V16H27V30C27 30.55 27.45 31 28 31H30C30.55 31 31 30.55 31 30C31 29.45 30.55 29 30 29ZM21 23C20.45 23 20 22.55 20 22C20 21.45 20.45 21 21 21C21.55 21 22 21.45 22 22C22 22.55 21.55 23 21 23Z" fill="white"/>
</svg>
