<svg width="44" height="44" viewBox="0 0 44 44" fill="none" xmlns="http://www.w3.org/2000/svg">
<rect x="1" y="1" width="42" height="42" rx="21" fill="#FF7700"/>
<rect x="1" y="1" width="42" height="42" rx="21" stroke="white" stroke-width="2"/>
<path d="M32.9561 17.0195C33.3678 17.3211 33.4866 17.8842 33.2314 18.3262L30.7588 22.6094C30.4826 23.0875 29.8708 23.2507 29.3926 22.9746L28.6397 22.541V31.8086C28.6397 32.3609 28.1919 32.8086 27.6397 32.8086H16.2295C15.6772 32.8086 15.2295 32.3609 15.2295 31.8086V22.541L13.9668 23.1074C13.501 23.3164 12.9523 23.1409 12.6943 22.7002L10.1367 18.3301C9.87745 17.8866 9.99662 17.3188 10.4121 17.0166L17.3096 12H18.4746C18.4693 12.0758 18.4658 12.1523 18.4658 12.2295C18.4658 14.0171 19.9145 15.4666 21.7022 15.4668C23.49 15.4668 24.9395 14.0172 24.9395 12.2295C24.9395 12.1523 24.936 12.0758 24.9307 12H26.0967L32.9561 17.0195Z" fill="white"/>
</svg>
