<svg width="44" height="44" viewBox="0 0 44 44" fill="none" xmlns="http://www.w3.org/2000/svg">
<rect x="1" y="1" width="42" height="42" rx="21" fill="#35C759"/>
<rect x="1" y="1" width="42" height="42" rx="21" stroke="white" stroke-width="2"/>
<path d="M21.6973 29.9629L20.8373 29.1029C19.6573 27.9229 19.6673 26.0029 20.8573 24.8429L21.6973 24.0229C21.3073 23.9829 21.0173 23.9629 20.6973 23.9629C18.0273 23.9629 12.6973 25.3029 12.6973 27.9629V29.9629H21.6973ZM20.6973 21.9629C22.9073 21.9629 24.6973 20.1729 24.6973 17.9629C24.6973 15.7529 22.9073 13.9629 20.6973 13.9629C18.4873 13.9629 16.6973 15.7529 16.6973 17.9629C16.6973 20.1729 18.4873 21.9629 20.6973 21.9629Z" fill="white"/>
<path d="M25.8773 29.7429C25.4873 30.1329 24.8473 30.1329 24.4573 29.7429L22.3873 27.6529C22.0073 27.2629 22.0073 26.6429 22.3873 26.2629L22.3973 26.2529C22.7873 25.8629 23.4173 25.8629 23.7973 26.2529L25.1673 27.6229L29.5973 23.1629C29.9873 22.7729 30.6173 22.7729 31.0073 23.1629L31.0173 23.1729C31.3973 23.5629 31.3973 24.1829 31.0173 24.5629L25.8773 29.7429Z" fill="white"/>
</svg>
