<svg width="44" height="44" viewBox="0 0 44 44" fill="none" xmlns="http://www.w3.org/2000/svg">
<rect x="1" y="1" width="42" height="42" rx="21" fill="#3561FF"/>
<rect x="1" y="1" width="42" height="42" rx="21" stroke="white" stroke-width="2"/>
<path d="M15.4932 17.8164V24.6333C15.4932 26.6869 17.1579 28.3516 19.2115 28.3516H24.7889C26.8425 28.3516 28.5072 26.6869 28.5072 24.6333V17.8164" stroke="white" stroke-width="1.5" stroke-linecap="round"/>
<path d="M17.3525 33H26.6483" stroke="white" stroke-width="1.5" stroke-linecap="round"/>
<path d="M22 32.9994V28.3516" stroke="white" stroke-width="1.5" stroke-linecap="round"/>
<path d="M23.6475 11C25.3043 11 26.6475 12.3431 26.6475 14V14.7188H24.1689C23.8268 14.7188 23.5489 14.9957 23.5488 15.3379C23.5488 15.6801 23.8267 15.958 24.1689 15.958H26.6475V17.1973H24.1689C23.8267 17.1973 23.5488 17.4751 23.5488 17.8174C23.5491 18.1594 23.8269 18.4365 24.1689 18.4365H26.6475V19.6758H24.1689C23.8267 19.6758 23.5488 19.9537 23.5488 20.2959C23.5489 20.6381 23.8268 20.915 24.1689 20.915H26.6475V22.873C26.6475 24.5299 25.3043 25.873 23.6475 25.873H20.3525C18.6957 25.873 17.3525 24.5299 17.3525 22.873V20.915H19.8311C20.1732 20.915 20.4511 20.6381 20.4512 20.2959C20.4512 19.9537 20.1733 19.6758 19.8311 19.6758H17.3525V18.4365H19.8311C20.1731 18.4365 20.4509 18.1594 20.4512 17.8174C20.4512 17.4751 20.1733 17.1973 19.8311 17.1973H17.3525V15.958H19.8311C20.1733 15.958 20.4512 15.6801 20.4512 15.3379C20.4511 14.9957 20.1732 14.7188 19.8311 14.7188H17.3525V14C17.3525 12.3431 18.6957 11 20.3525 11H23.6475Z" fill="white"/>
</svg>
