<svg width="44" height="44" viewBox="0 0 44 44" fill="none" xmlns="http://www.w3.org/2000/svg">
<rect x="1" y="1" width="42" height="42" rx="21" fill="#FF2670"/>
<rect x="1" y="1" width="42" height="42" rx="21" stroke="white" stroke-width="2"/>
<path d="M18 28.5H28V29.5C28 30.6 27.1 31.5 26 31.5H20C18.9 31.5 18 30.6 18 29.5V28.5ZM18 27.5H28V22.5H18V27.5ZM28 13.73V17.27C28 17.9 27.42 18.38 26.79 18.25L24.85 17.84C24.85 17.86 24.85 17.85 24.84 17.87C26.38 18.49 27.55 19.85 27.9 21.5H18.1C18.44 19.84 19.62 18.48 21.17 17.86C20.84 17.6 20.57 17.28 20.37 16.91L16.49 16.1C16.2 16.04 16 15.79 16 15.5C16 15.21 16.2 14.96 16.49 14.9L20.37 14.09C20.87 13.15 21.86 12.5 23 12.5C23.7 12.5 24.34 12.75 24.85 13.16L26.79 12.75C27.42 12.62 28 13.1 28 13.73ZM24 15.5C23.97 14.91 23.55 14.5 23 14.5C22.45 14.5 22 14.95 22 15.5C22 16.05 22.45 16.5 23 16.5C23.55 16.5 24 16.05 24 15.5Z" fill="white"/>
</svg>
