<svg width="44" height="44" viewBox="0 0 44 44" fill="none" xmlns="http://www.w3.org/2000/svg">
<rect x="1" y="1" width="42" height="42" rx="21" fill="#35C759"/>
<rect x="1" y="1" width="42" height="42" rx="21" stroke="white" stroke-width="2"/>
<path d="M22 12C16.48 12 12 16.48 12 22C12 27.52 16.48 32 22 32C27.52 32 32 27.52 32 22C32 16.48 27.52 12 22 12ZM23 29H21V27H23V29ZM25.07 21.25L24.17 22.17C23.67 22.68 23.31 23.14 23.13 23.86C23.05 24.18 23 24.54 23 25H21V24.5C21 24.04 21.08 23.6 21.22 23.19C21.42 22.61 21.75 22.09 22.17 21.67L23.41 20.41C23.87 19.97 24.09 19.31 23.96 18.61C23.83 17.89 23.27 17.28 22.57 17.08C21.46 16.77 20.43 17.4 20.1 18.35C19.98 18.72 19.67 19 19.28 19H18.98C18.4 19 18 18.44 18.16 17.88C18.59 16.41 19.84 15.29 21.39 15.05C22.91 14.81 24.36 15.6 25.26 16.85C26.44 18.48 26.09 20.23 25.07 21.25Z" fill="white"/>
</svg>
