<svg width="44" height="44" viewBox="0 0 44 44" fill="none" xmlns="http://www.w3.org/2000/svg">
<rect x="1" y="1" width="42" height="42" rx="21" fill="#FF7700"/>
<rect x="1" y="1" width="42" height="42" rx="21" stroke="white" stroke-width="2"/>
<path d="M28.5 14H16C14.9 14 14 14.9 14 16V21.71C14 25.54 16.95 28.89 20.78 29C24.74 29.12 28 25.94 28 22V21H28.5C30.43 21 32 19.43 32 17.5C32 15.57 30.43 14 28.5 14ZM26 16V19H16V16H26ZM28.5 19H28V16H28.5C29.33 16 30 16.67 30 17.5C30 18.33 29.33 19 28.5 19ZM15 30H29C29.55 30 30 30.45 30 31C30 31.55 29.55 32 29 32H15C14.45 32 14 31.55 14 31C14 30.45 14.45 30 15 30Z" fill="white"/>
</svg>
