<svg width="44" height="44" viewBox="0 0 44 44" fill="none" xmlns="http://www.w3.org/2000/svg">
<rect x="1" y="1" width="42" height="42" rx="21" fill="#3561FF"/>
<rect x="1" y="1" width="42" height="42" rx="21" stroke="white" stroke-width="2"/>
<path d="M29 13H15C13.9 13 13 13.9 13 15V29C13 30.1 13.9 31 15 31H29C30.1 31 31 30.1 31 29V15C31 13.9 30.1 13 29 13ZM18.5 16C19.19 16 19.75 16.56 19.75 17.25C19.75 17.94 19.19 18.5 18.5 18.5C17.81 18.5 17.25 17.94 17.25 17.25C17.25 16.56 17.81 16 18.5 16ZM21 23C21 23.55 20.55 24 20 24V27C20 27.55 19.55 28 19 28H18C17.45 28 17 27.55 17 27V24C16.45 24 16 23.55 16 23V21.5C16 20.4 16.9 19.5 18 19.5H19C20.1 19.5 21 20.4 21 21.5V23ZM27.52 23.76L25.92 26.32C25.72 26.63 25.27 26.63 25.07 26.32L23.47 23.76C23.27 23.43 23.51 23 23.9 23H27.1C27.49 23 27.73 23.43 27.52 23.76ZM27.1 21H23.9C23.51 21 23.27 20.57 23.48 20.23L25.08 17.67C25.28 17.36 25.73 17.36 25.93 17.67L27.53 20.23C27.73 20.57 27.49 21 27.1 21Z" fill="white"/>
</svg>
