<svg width="44" height="44" viewBox="0 0 44 44" fill="none" xmlns="http://www.w3.org/2000/svg">
<rect x="1" y="1" width="42" height="42" rx="21" fill="#FFB300"/>
<rect x="1" y="1" width="42" height="42" rx="21" stroke="white" stroke-width="2"/>
<path d="M22.0003 27.5198L26.1503 30.0298C26.9103 30.4898 27.8403 29.8098 27.6403 28.9498L26.5403 24.2298L30.2103 21.0498C30.8803 20.4698 30.5203 19.3698 29.6403 19.2998L24.8103 18.8898L22.9203 14.4298C22.5803 13.6198 21.4203 13.6198 21.0803 14.4298L19.1903 18.8798L14.3603 19.2898C13.4803 19.3598 13.1203 20.4598 13.7903 21.0398L17.4603 24.2198L16.3603 28.9398C16.1603 29.7998 17.0903 30.4798 17.8503 30.0198L22.0003 27.5198Z" fill="white"/>
</svg>
