<svg width="44" height="44" viewBox="0 0 44 44" fill="none" xmlns="http://www.w3.org/2000/svg">
<rect x="1" y="1" width="42" height="42" rx="21" fill="#35C759"/>
<rect x="1" y="1" width="42" height="42" rx="21" stroke="white" stroke-width="2"/>
<path d="M25.5 27.4452H13.5C12.67 27.4452 12 28.1152 12 28.9452C12 29.7752 12.67 30.4452 13.5 30.4452H25.5C26.33 30.4452 27 29.7752 27 28.9452C27 28.1152 26.33 27.4452 25.5 27.4452ZM28.85 19.1752C29.47 18.5652 29.85 17.7252 29.85 16.7952C29.85 15.2852 28.85 14.0052 27.47 13.5852C26.99 13.4452 26.5 13.8052 26.5 14.3052C26.5 14.6352 26.71 14.9252 27.02 15.0152C27.79 15.2452 28.35 15.9552 28.35 16.7952C28.35 17.6152 27.82 18.3052 27.08 18.5552C26.75 18.6652 26.5 18.9452 26.5 19.2952V19.4452C26.5 19.8152 26.77 20.1352 27.14 20.1952C29.07 20.5052 30.5 22.1952 30.5 24.2152V25.6952C30.5 26.1052 30.84 26.4452 31.25 26.4452C31.66 26.4452 32 26.1052 32 25.6952V24.2052C32 21.9852 30.72 20.0652 28.85 19.1752ZM26.03 21.6452H24.73C23.71 21.6452 22.79 20.9152 22.66 19.8952C22.54 18.9452 23.12 18.1952 23.96 17.9652C24.28 17.8752 24.5 17.5852 24.5 17.2452C24.5 16.7552 24.04 16.3852 23.57 16.5252C22.15 16.9352 21.12 18.2552 21.15 19.8052C21.18 21.6452 22.77 23.0952 24.61 23.0952H26.03C27.08 23.0952 28 23.8352 28 25.1452V25.6952C28 26.1052 28.33 26.4452 28.75 26.4452H28.76C29.17 26.4452 29.51 26.1152 29.51 25.6952V24.8052C29.5 22.9952 27.9 21.6452 26.03 21.6452ZM28 27.4452H29.5V30.4452H28V27.4452ZM30.5 27.4452H32V30.4452H30.5V27.4452Z" fill="white"/>
</svg>
