<svg width="44" height="44" viewBox="0 0 44 44" fill="none" xmlns="http://www.w3.org/2000/svg">
<rect x="1" y="1" width="42" height="42" rx="21" fill="#FF7700"/>
<rect x="1" y="1" width="42" height="42" rx="21" stroke="white" stroke-width="2"/>
<path d="M26 16V22C26 23.1 26.9 24 28 24H29V31C29 31.55 29.45 32 30 32C30.55 32 31 31.55 31 31V13.13C31 12.48 30.39 12 29.76 12.15C27.6 12.68 26 14.51 26 16ZM21 19H19V13C19 12.45 18.55 12 18 12C17.45 12 17 12.45 17 13V19H15V13C15 12.45 14.55 12 14 12C13.45 12 13 12.45 13 13V19C13 21.21 14.79 23 17 23V31C17 31.55 17.45 32 18 32C18.55 32 19 31.55 19 31V23C21.21 23 23 21.21 23 19V13C23 12.45 22.55 12 22 12C21.45 12 21 12.45 21 13V19Z" fill="white"/>
</svg>
