<svg width="44" height="44" viewBox="0 0 44 44" fill="none" xmlns="http://www.w3.org/2000/svg">
<rect x="1" y="1" width="42" height="42" rx="21" fill="#35C759"/>
<rect x="1" y="1" width="42" height="42" rx="21" stroke="white" stroke-width="2"/>
<path d="M22.66 12.4135C22.28 12.0835 21.71 12.0835 21.33 12.4135C16.45 16.7135 14 20.4535 14 23.6335C14 28.6135 17.8 31.8335 22 31.8335C26.2 31.8335 30 28.6135 30 23.6335C30 20.4535 27.55 16.7135 22.66 12.4135ZM17.83 23.8335C18.2 23.8335 18.5 24.0935 18.57 24.4535C18.98 26.6735 20.85 27.4335 22.21 27.3235C22.64 27.3035 23 27.6435 23 28.0735C23 28.4735 22.68 28.8035 22.28 28.8235C20.15 28.9535 17.66 27.7335 17.09 24.7035C17.01 24.2535 17.37 23.8335 17.83 23.8335Z" fill="white"/>
</svg>
