<svg width="36" height="36" viewBox="0 0 36 36" fill="none" xmlns="http://www.w3.org/2000/svg">
<rect x="1" y="1" width="34" height="34" rx="13" fill="#1F1F1F"/>
<rect x="1" y="1" width="34" height="34" rx="13" stroke="white" stroke-width="2"/>
<path d="M20.1395 17.6286H20.0795C20.8895 17.6286 21.3595 16.7186 20.8995 16.0586L15.8195 8.79859C15.4195 8.22859 14.5795 8.22859 14.1795 8.79859L9.09953 16.0586C8.63953 16.7186 9.10953 17.6286 9.91953 17.6286H9.85953L6.98953 22.0886C6.55953 22.7486 7.03953 23.6286 7.82953 23.6286H12.9995V25.6286C12.9995 26.7286 13.8995 27.6286 14.9995 27.6286C16.0995 27.6286 16.9995 26.7286 16.9995 25.6286V23.6286H22.1695C22.9595 23.6286 23.4395 22.7486 23.0095 22.0886L20.1395 17.6286Z" fill="white"/>
<path d="M29.0095 22.0886L26.1395 17.6286H26.0795C26.8895 17.6286 27.3595 16.7186 26.8995 16.0586L21.8195 8.79859C21.4195 8.22859 20.5795 8.22859 20.1795 8.79859L18.6095 11.0386L21.7195 15.4786C22.1495 16.0886 22.1995 16.8886 21.8595 17.5486C21.7795 17.7086 21.6795 17.8486 21.5595 17.9786L23.8495 21.5486C24.2495 22.1686 24.2695 22.9486 23.9195 23.5886C23.9095 23.6086 23.8995 23.6186 23.8895 23.6286H28.1695C28.9595 23.6286 29.4395 22.7486 29.0095 22.0886Z" fill="white"/>
<path d="M18.9995 25.6286C18.9995 26.7286 19.8995 27.6286 20.9995 27.6286C22.0995 27.6286 22.9995 26.7286 22.9995 25.6286V24.6286H18.9995V25.6286Z" fill="white"/>
</svg>
