<svg width="44" height="44" viewBox="0 0 44 44" fill="none" xmlns="http://www.w3.org/2000/svg">
<rect x="1" y="1" width="42" height="42" rx="21" fill="#35C759"/>
<rect x="1" y="1" width="42" height="42" rx="21" stroke="white" stroke-width="2"/>
<path d="M22.29 13H17.5C16.4 13 15.5 13.9 15.5 15V29C15.5 30.1 16.4 31 17.5 31C18.6 31 19.5 30.1 19.5 29V25H22.5C26.07 25 28.92 21.87 28.45 18.21C28.06 15.19 25.34 13 22.29 13ZM22.7 21H19.5V17H22.7C23.8 17 24.7 17.9 24.7 19C24.7 20.1 23.8 21 22.7 21Z" fill="white"/>
</svg>
