<svg width="44" height="44" viewBox="0 0 44 44" fill="none" xmlns="http://www.w3.org/2000/svg">
<rect x="1" y="1" width="42" height="42" rx="21" fill="#3561FF"/>
<rect x="1" y="1" width="42" height="42" rx="21" stroke="white" stroke-width="2"/>
<path d="M30.4104 18.7807C30.9004 18.7807 31.1004 18.1507 30.7004 17.8707L23.1504 12.5807C22.4604 12.1007 21.5404 12.1007 20.8604 12.5807L13.3004 17.8707C12.9004 18.1507 13.1004 18.7807 13.5904 18.7807H21.0004V30.7807C21.0004 31.3307 21.4504 31.7807 22.0004 31.7807C22.5504 31.7807 23.0004 31.3307 23.0004 30.7807V18.7807H30.4104Z" fill="white"/>
<path d="M18.0004 25.7807H14.9004L14.3304 22.7607C14.2304 22.2207 13.7104 21.8607 13.1604 21.9607C12.6204 22.0607 12.2604 22.5807 12.3604 23.1307L13.0004 26.5207V30.7807C13.0004 31.3307 13.4504 31.7807 14.0004 31.7807H14.0104C14.5604 31.7807 15.0104 31.3407 15.0104 30.7907L15.0204 27.7807H17.0004V30.7807C17.0004 31.3307 17.4504 31.7807 18.0004 31.7807C18.5504 31.7807 19.0004 31.3307 19.0004 30.7807V26.7807C19.0004 26.2307 18.5504 25.7807 18.0004 25.7807Z" fill="white"/>
<path d="M30.8404 21.9607C30.3004 21.8607 29.7804 22.2207 29.6704 22.7607L29.1004 25.7807H26.0004C25.4504 25.7807 25.0004 26.2307 25.0004 26.7807V30.7807C25.0004 31.3307 25.4504 31.7807 26.0004 31.7807C26.5504 31.7807 27.0004 31.3307 27.0004 30.7807V27.7807H28.9804L29.0004 30.7907C29.0004 31.3407 29.4504 31.7807 30.0004 31.7807C30.5504 31.7807 31.0004 31.3307 31.0004 30.7807V26.5207L31.6404 23.1307C31.7404 22.5907 31.3804 22.0607 30.8404 21.9607Z" fill="white"/>
</svg>
