<svg width="44" height="44" viewBox="0 0 44 44" fill="none" xmlns="http://www.w3.org/2000/svg">
<rect x="1" y="1" width="42" height="42" rx="21" fill="#FF7700"/>
<rect x="1" y="1" width="42" height="42" rx="21" stroke="white" stroke-width="2"/>
<path d="M31 14.45C31 13.65 30.35 13 29.55 13H14.45C13.65 13 13 13.65 13 14.45C13 14.8 13.13 15.15 13.37 15.41L21 24V29H17C16.45 29 16 29.45 16 30C16 30.55 16.45 31 17 31H27C27.55 31 28 30.55 28 30C28 29.45 27.55 29 27 29H23V24L30.63 15.41C30.87 15.15 31 14.8 31 14.45ZM17.43 17L15.66 15H28.35L26.57 17H17.43Z" fill="white"/>
</svg>
