<svg width="44" height="44" viewBox="0 0 44 44" fill="none" xmlns="http://www.w3.org/2000/svg">
<rect x="1" y="1" width="42" height="42" rx="21" fill="#3561FF"/>
<rect x="1" y="1" width="42" height="42" rx="21" stroke="white" stroke-width="2"/>
<path d="M27 26.9902C25.65 26.9902 24.8 27.4102 24.05 27.7902C23.4 28.1202 22.87 28.3902 22 28.3902C21.1 28.3902 20.6 28.1402 19.95 27.7902C19.2 27.4102 18.38 26.9902 17 26.9902C15.62 26.9902 14.8 27.4102 14.05 27.7902C13.62 28.0102 13.24 28.2002 12.78 28.3102C12.33 28.4102 12 28.7702 12 29.2202V29.3202C12 29.9202 12.56 30.3502 13.14 30.2302C13.88 30.0802 14.44 29.8002 14.95 29.5402C15.6 29.2102 16.12 28.9402 17 28.9402C17.88 28.9402 18.4 29.1902 19.05 29.5402C19.8 29.9202 20.62 30.3402 22 30.3402C23.38 30.3402 24.2 29.9202 24.95 29.5402C25.6 29.2102 26.13 28.9402 27 28.9402C27.9 28.9402 28.4 29.1902 29.05 29.5402C29.57 29.8002 30.13 30.0902 30.88 30.2402C31.46 30.3502 32 29.9102 32 29.3302V29.2402C32 28.7802 31.66 28.4202 31.21 28.3202C30.75 28.2202 30.38 28.0302 29.95 27.8002C29.2 27.4102 28.35 26.9902 27 26.9902ZM27 22.5402C25.65 22.5402 24.8 22.9702 24.05 23.3402C23.4 23.6602 22.87 23.9402 22 23.9402C21.1 23.9402 20.6 23.6902 19.95 23.3402C19.2 22.9602 18.38 22.5402 17 22.5402C15.62 22.5402 14.8 22.9702 14.05 23.3402C13.62 23.5502 13.24 23.7502 12.77 23.8602C12.33 23.9602 12 24.3202 12 24.7702V24.8702C12 25.4602 12.54 25.9002 13.12 25.7802C13.87 25.6302 14.43 25.3402 14.95 25.0902C15.6 24.7402 16.1 24.4902 17 24.4902C17.9 24.4902 18.4 24.7402 19.05 25.0902C19.8 25.4702 20.62 25.8902 22 25.8902C23.38 25.8902 24.2 25.4602 24.95 25.0902C25.6 24.7402 26.1 24.4902 27 24.4902C27.9 24.4902 28.4 24.7402 29.05 25.0902C29.57 25.3502 30.13 25.6402 30.88 25.7902C31.46 25.9002 32 25.4602 32 24.8702V24.7802C32 24.3202 31.66 23.9602 31.21 23.8602C30.75 23.7602 30.38 23.5702 29.95 23.3402C29.2 22.9602 28.35 22.5402 27 22.5402ZM29.95 14.4602C29.2 14.0802 28.37 13.6602 27 13.6602C25.63 13.6602 24.8 14.0802 24.05 14.4602C23.4 14.7802 22.87 15.0602 22 15.0602C21.1 15.0602 20.6 14.8102 19.95 14.4602C19.2 14.0902 18.38 13.6602 17 13.6602C15.62 13.6602 14.8 14.0802 14.05 14.4602C13.62 14.6802 13.24 14.8702 12.78 14.9802C12.33 15.0802 12 15.4402 12 15.8902V15.9602C12 16.5602 12.54 17.0002 13.12 16.8802C13.87 16.7302 14.43 16.4402 14.95 16.1902C15.6 15.8602 16.12 15.5902 17 15.5902C17.88 15.5902 18.4 15.8402 19.05 16.1902C19.8 16.5702 20.62 16.9902 22 16.9902C23.38 16.9902 24.2 16.5602 24.95 16.1902C25.6 15.8702 26.13 15.5902 27 15.5902C27.9 15.5902 28.4 15.8402 29.05 16.1902C29.57 16.4502 30.13 16.7402 30.88 16.8902C31.46 17.0002 32 16.5602 32 15.9702V15.8802C32 15.4202 31.66 15.0602 31.21 14.9602C30.75 14.8602 30.38 14.6802 29.95 14.4602ZM27 18.0902C25.65 18.0902 24.8 18.5202 24.05 18.8902C23.4 19.2402 22.9 19.4902 22 19.4902C21.1 19.4902 20.6 19.2402 19.95 18.8902C19.2 18.5102 18.38 18.0902 17 18.0902C15.62 18.0902 14.8 18.5202 14.05 18.8902C13.62 19.1202 13.25 19.3102 12.79 19.4102C12.34 19.5102 12 19.8702 12 20.3302V20.4202C12 21.0102 12.54 21.4502 13.12 21.3302C13.87 21.1802 14.43 20.8902 14.95 20.6402C15.6 20.3202 16.13 20.0402 17 20.0402C17.87 20.0402 18.4 20.2902 19.05 20.6402C19.8 21.0202 20.62 21.4402 22 21.4402C23.38 21.4402 24.2 21.0102 24.95 20.6402C25.6 20.3202 26.13 20.0402 27 20.0402C27.9 20.0402 28.4 20.2902 29.05 20.6402C29.57 20.9002 30.13 21.1902 30.88 21.3402C31.46 21.4502 32 21.0102 32 20.4302V20.3402C32 19.8802 31.66 19.5202 31.21 19.4202C30.75 19.3202 30.38 19.1302 29.95 18.9002C29.2 18.5102 28.35 18.0902 27 18.0902Z" fill="white"/>
</svg>
