<svg width="44" height="44" viewBox="0 0 44 44" fill="none" xmlns="http://www.w3.org/2000/svg">
<rect x="1" y="1" width="42" height="42" rx="21" fill="#FF2670"/>
<rect x="1" y="1" width="42" height="42" rx="21" stroke="white" stroke-width="2"/>
<path d="M24.4603 15.25C25.5603 15.25 26.4603 14.35 26.4603 13.25C26.4603 12.15 25.5603 11.25 24.4603 11.25C23.3603 11.25 22.4603 12.15 22.4603 13.25C22.4603 14.35 23.3603 15.25 24.4603 15.25ZM21.2903 27.25L21.8603 24.75L23.9603 26.75V31.75C23.9603 32.3 24.4103 32.75 24.9603 32.75C25.5103 32.75 25.9603 32.3 25.9603 31.75V26.11C25.9603 25.56 25.7403 25.04 25.3403 24.66L23.8603 23.25L24.4603 20.25C25.5303 21.49 27.0803 22.38 28.8203 22.66C29.4203 22.75 29.9603 22.27 29.9603 21.66C29.9603 21.17 29.6003 20.76 29.1103 20.68C27.5903 20.43 26.3303 19.53 25.6603 18.35L24.6603 16.75C24.2603 16.15 23.6603 15.75 22.9603 15.75C22.6603 15.75 22.4603 15.85 22.1603 15.85L18.1803 17.53C17.4403 17.85 16.9603 18.57 16.9603 19.38V21.75C16.9603 22.3 17.4103 22.75 17.9603 22.75C18.5103 22.75 18.9603 22.3 18.9603 21.75V19.35L20.7603 18.65L19.1603 26.75L15.2403 25.95C14.7003 25.84 14.1703 26.19 14.0603 26.73V26.77C13.9503 27.31 14.3003 27.84 14.8403 27.95L18.9503 28.77C20.0103 28.98 21.0503 28.31 21.2903 27.25Z" fill="white"/>
</svg>
