<svg width="44" height="44" viewBox="0 0 44 44" fill="none" xmlns="http://www.w3.org/2000/svg">
<rect x="1" y="1" width="42" height="42" rx="21" fill="#9462FA"/>
<rect x="1" y="1" width="42" height="42" rx="21" stroke="white" stroke-width="2"/>
<path d="M29.7583 17.741L26.5033 20.996C26.13 21.3693 26.3866 21.9993 26.9116 21.9993H29C29 25.861 25.8616 28.9993 22 28.9993C21.0783 28.9993 20.18 28.8243 19.375 28.486C18.955 28.311 18.4766 28.4393 18.1616 28.7543C17.5666 29.3493 17.7766 30.3527 18.5583 30.6677C19.62 31.0993 20.7866 31.3327 22 31.3327C27.1566 31.3327 31.3333 27.156 31.3333 21.9993H33.4216C33.9466 21.9993 34.2033 21.3693 33.83 21.0077L30.575 17.7527C30.3533 17.5193 29.98 17.5193 29.7583 17.741ZM15 21.9993C15 18.1377 18.1383 14.9993 22 14.9993C22.9216 14.9993 23.82 15.1743 24.625 15.5127C25.045 15.6877 25.5233 15.5593 25.8383 15.2443C26.4333 14.6493 26.2233 13.646 25.4416 13.331C24.38 12.8993 23.2133 12.666 22 12.666C16.8433 12.666 12.6666 16.8427 12.6666 21.9993H10.5783C10.0533 21.9993 9.79662 22.6293 10.17 22.991L13.425 26.246C13.6583 26.4793 14.02 26.4793 14.2533 26.246L17.5083 22.991C17.87 22.6293 17.6133 21.9993 17.0883 21.9993H15Z" fill="white"/>
</svg>
