<svg width="44" height="44" viewBox="0 0 44 44" fill="none" xmlns="http://www.w3.org/2000/svg">
<rect x="1" y="1" width="42" height="42" rx="21" fill="#9462FA"/>
<rect x="1" y="1" width="42" height="42" rx="21" stroke="white" stroke-width="2"/>
<path d="M16.667 19C16.667 19.5467 17.1203 20 17.667 20H19.667V25C19.667 25.5467 20.1203 26 20.667 26C21.2137 26 21.667 25.5467 21.667 25V20H23.667C24.2137 20 24.667 19.5467 24.667 19C24.667 18.4533 24.2137 18 23.667 18H17.667C17.1203 18 16.667 18.4533 16.667 19ZM14.0003 18H10.0003C9.26699 18 8.66699 18.6 8.66699 19.3333V25C8.66699 25.5467 9.12033 26 9.66699 26C10.2137 26 10.667 25.5467 10.667 25V24H13.3337V25C13.3337 25.5467 13.787 26 14.3337 26C14.8803 26 15.3337 25.5467 15.3337 25V19.3333C15.3337 18.6 14.7337 18 14.0003 18ZM13.3337 22H10.667V20H13.3337V22ZM34.0003 18H28.0003C27.267 18 26.667 18.6 26.667 19.3333V25C26.667 25.5467 27.1203 26 27.667 26C28.2137 26 28.667 25.5467 28.667 25V20H30.0003V23.6667C30.0003 24.2133 30.4537 24.6667 31.0003 24.6667C31.547 24.6667 32.0003 24.2133 32.0003 23.6667V19.9867H33.3337V25C33.3337 25.5467 33.787 26 34.3337 26C34.8803 26 35.3337 25.5467 35.3337 25V19.3333C35.3337 18.6 34.7337 18 34.0003 18Z" fill="white"/>
</svg>
