<svg width="44" height="44" viewBox="0 0 44 44" fill="none" xmlns="http://www.w3.org/2000/svg">
<rect x="1" y="1" width="42" height="42" rx="21" fill="#35C759"/>
<rect x="1" y="1" width="42" height="42" rx="21" stroke="white" stroke-width="2"/>
<path d="M12.0572 20.04C12.5672 20.55 13.3772 20.6 13.9272 20.14C18.5972 16.3 25.3772 16.3 30.0572 20.13C30.6172 20.59 31.4372 20.55 31.9472 20.04C32.5372 19.45 32.4972 18.47 31.8472 17.94C26.1372 13.27 17.8772 13.27 12.1572 17.94C11.5072 18.46 11.4572 19.44 12.0572 20.04ZM19.8172 27.8L21.2872 29.27C21.6772 29.66 22.3072 29.66 22.6972 29.27L24.1672 27.8C24.6372 27.33 24.5372 26.52 23.9372 26.21C22.7172 25.58 21.2572 25.58 20.0272 26.21C19.4572 26.52 19.3472 27.33 19.8172 27.8ZM16.0872 24.07C16.5772 24.56 17.3472 24.61 17.9172 24.2C20.3572 22.47 23.6372 22.47 26.0772 24.2C26.6472 24.6 27.4172 24.56 27.9072 24.07L27.9172 24.06C28.5172 23.46 28.4772 22.44 27.7872 21.95C24.3472 19.46 19.6572 19.46 16.2072 21.95C15.5172 22.45 15.4772 23.46 16.0872 24.07Z" fill="white"/>
</svg>
