<svg width="44" height="44" viewBox="0 0 44 44" fill="none" xmlns="http://www.w3.org/2000/svg">
<rect x="1" y="1" width="42" height="42" rx="21" fill="#3561FF"/>
<rect x="1" y="1" width="42" height="42" rx="21" stroke="white" stroke-width="2"/>
<path d="M23 19V17.82C24.16 17.4 25 16.3 25 15C25 13.35 23.65 12 22 12C20.35 12 19 13.35 19 15C19 16.3 19.84 17.4 21 17.82V19H19C18.45 19 18 19.45 18 20C18 20.55 18.45 21 19 21H21V29.92C18.78 29.59 16.41 28.24 15.45 26.55L16.59 25.41C16.81 25.19 16.78 24.84 16.54 24.66L13.8 22.6C13.47 22.35 13 22.59 13 23V25C13 28.88 17.92 32 22 32C26.08 32 31 28.88 31 25V23C31 22.59 30.53 22.35 30.2 22.6L27.46 24.65C27.22 24.83 27.19 25.19 27.41 25.4L28.55 26.54C27.59 28.23 25.22 29.58 23 29.91V21H25C25.55 21 26 20.55 26 20C26 19.45 25.55 19 25 19H23ZM22 14C22.55 14 23 14.45 23 15C23 15.55 22.55 16 22 16C21.45 16 21 15.55 21 15C21 14.45 21.45 14 22 14Z" fill="white"/>
</svg>
