<svg width="44" height="44" viewBox="0 0 44 44" fill="none" xmlns="http://www.w3.org/2000/svg">
<rect x="1" y="1" width="42" height="42" rx="21" fill="#35C759"/>
<rect x="1" y="1" width="42" height="42" rx="21" stroke="white" stroke-width="2"/>
<path d="M20.6651 31C20.3151 31 20.0451 30.69 20.0951 30.34L20.9951 24H17.4951C16.6151 24 17.1651 23.25 17.1851 23.22C18.4451 20.99 20.3351 17.69 22.8351 13.29C22.9351 13.11 23.1351 13 23.3351 13C23.6851 13 23.9551 13.31 23.9051 13.66L23.0051 20H26.5151C26.9151 20 27.1351 20.19 26.9151 20.66C23.6251 26.4 21.7151 29.75 21.1651 30.71C21.0651 30.89 20.8751 31 20.6651 31Z" fill="white"/>
</svg>
