<svg width="36" height="36" viewBox="0 0 36 36" fill="none" xmlns="http://www.w3.org/2000/svg">
<rect x="1" y="1" width="34" height="34" rx="13" fill="#1F1F1F"/>
<rect x="1" y="1" width="34" height="34" rx="13" stroke="white" stroke-width="2"/>
<path d="M27.9601 15.73L26.5301 10.73C26.4101 10.3 26.0201 10 25.5701 10H10.4301C9.98009 10 9.59009 10.3 9.47009 10.73L8.04009 15.73C7.86009 16.36 8.34009 17 9.00009 17H11.2001L10.1501 24.88C10.0701 25.47 10.5301 26 11.1301 26C11.6301 26 12.0501 25.63 12.1101 25.14L12.6701 21H23.3401L23.8901 25.14C23.9601 25.63 24.3801 26 24.8701 26C25.4701 26 25.9301 25.47 25.8501 24.88L24.8001 17H27.0001C27.6601 17 28.1401 16.36 27.9601 15.73ZM12.9301 19L13.2001 17H22.8001L23.0701 19H12.9301Z" fill="white"/>
</svg>
