<svg width="44" height="44" viewBox="0 0 44 44" fill="none" xmlns="http://www.w3.org/2000/svg">
<rect x="1" y="1" width="42" height="42" rx="21" fill="#35C759"/>
<rect x="1" y="1" width="42" height="42" rx="21" stroke="white" stroke-width="2"/>
<path d="M15.1953 31V24.5H14.6953C14.1453 24.5 13.6953 24.05 13.6953 23.5V19C13.6953 17.9 14.5953 17 15.6953 17H18.6953C19.7953 17 20.6953 17.9 20.6953 19V23.5C20.6953 24.05 20.2453 24.5 19.6953 24.5H19.1953V31C19.1953 31.55 18.7453 32 18.1953 32H16.1953C15.6453 32 15.1953 31.55 15.1953 31ZM27.6953 31V26H29.3053C29.9853 26 30.4653 25.33 30.2553 24.68L28.1553 18.37C27.8753 17.55 27.1153 17 26.2553 17H26.1353C25.2753 17 24.5053 17.55 24.2353 18.37L22.1353 24.68C21.9153 25.33 22.3953 26 23.0853 26H24.6953V31C24.6953 31.55 25.1453 32 25.6953 32H26.6953C27.2453 32 27.6953 31.55 27.6953 31ZM17.1953 16C18.3053 16 19.1953 15.11 19.1953 14C19.1953 12.89 18.3053 12 17.1953 12C16.0853 12 15.1953 12.89 15.1953 14C15.1953 15.11 16.0853 16 17.1953 16ZM26.1953 16C27.3053 16 28.1953 15.11 28.1953 14C28.1953 12.89 27.3053 12 26.1953 12C25.0853 12 24.1953 12.89 24.1953 14C24.1953 15.11 25.0853 16 26.1953 16Z" fill="white"/>
</svg>
