<svg width="44" height="44" viewBox="0 0 44 44" fill="none" xmlns="http://www.w3.org/2000/svg">
<rect x="1" y="1" width="42" height="42" rx="21" fill="#FF2670"/>
<rect x="1" y="1" width="42" height="42" rx="21" stroke="white" stroke-width="2"/>
<path d="M30 16H26V14C26 12.9 25.1 12 24 12H20C18.9 12 18 12.9 18 14V16H14C12.9 16 12 16.9 12 18V30C12 31.1 12.9 32 14 32H30C31.1 32 32 31.1 32 30V18C32 16.9 31.1 16 30 16ZM20 14H24V16H20V14ZM25 25H23V27C23 27.55 22.55 28 22 28C21.45 28 21 27.55 21 27V25H19C18.45 25 18 24.55 18 24C18 23.45 18.45 23 19 23H21V21C21 20.45 21.45 20 22 20C22.55 20 23 20.45 23 21V23H25C25.55 23 26 23.45 26 24C26 24.55 25.55 25 25 25Z" fill="white"/>
</svg>
