<svg width="93" height="36" viewBox="0 0 93 36" fill="none" xmlns="http://www.w3.org/2000/svg">
<rect width="93" height="36" rx="18" fill="white"/>
<path d="M23.7727 15.2727C23.7045 14.697 23.428 14.25 22.9432 13.9318C22.4583 13.6136 21.8636 13.4545 21.1591 13.4545C20.6439 13.4545 20.1932 13.5379 19.8068 13.7045C19.4242 13.8712 19.125 14.1004 18.9091 14.392C18.697 14.6837 18.5909 15.0152 18.5909 15.3864C18.5909 15.697 18.6648 15.964 18.8125 16.1875C18.964 16.4072 19.1572 16.5909 19.392 16.7386C19.6269 16.8826 19.8731 17.0019 20.1307 17.0966C20.3883 17.1875 20.625 17.2614 20.8409 17.3182L22.0227 17.6364C22.3258 17.7159 22.6629 17.8258 23.0341 17.9659C23.4091 18.1061 23.767 18.2973 24.108 18.5398C24.4527 18.7784 24.7367 19.0852 24.9602 19.4602C25.1837 19.8352 25.2955 20.2955 25.2955 20.8409C25.2955 21.4697 25.1307 22.0379 24.8011 22.5455C24.4754 23.053 23.9981 23.4564 23.3693 23.7557C22.7443 24.0549 21.9848 24.2045 21.0909 24.2045C20.2576 24.2045 19.536 24.0701 18.9261 23.8011C18.3201 23.5322 17.8428 23.1572 17.4943 22.6761C17.1496 22.1951 16.9545 21.6364 16.9091 21H18.3636C18.4015 21.4394 18.5492 21.803 18.8068 22.0909C19.0682 22.375 19.3977 22.5871 19.7955 22.7273C20.197 22.8636 20.6288 22.9318 21.0909 22.9318C21.6288 22.9318 22.1117 22.8447 22.5398 22.6705C22.9678 22.4924 23.3068 22.2462 23.5568 21.9318C23.8068 21.6136 23.9318 21.2424 23.9318 20.8182C23.9318 20.4318 23.8239 20.1174 23.608 19.875C23.392 19.6326 23.108 19.4356 22.7557 19.2841C22.4034 19.1326 22.0227 19 21.6136 18.8864L20.1818 18.4773C19.2727 18.2159 18.553 17.8428 18.0227 17.358C17.4924 16.8731 17.2273 16.2386 17.2273 15.4545C17.2273 14.803 17.4034 14.2348 17.7557 13.75C18.1117 13.2614 18.589 12.8826 19.1875 12.6136C19.7898 12.3409 20.4621 12.2045 21.2045 12.2045C21.9545 12.2045 22.6212 12.339 23.2045 12.608C23.7879 12.8731 24.25 13.2367 24.5909 13.6989C24.9356 14.161 25.1174 14.6856 25.1364 15.2727H23.7727ZM31.2259 15.2727V16.4091H26.7031V15.2727H31.2259ZM28.0213 13.1818H29.3622V21.5C29.3622 21.8788 29.4171 22.1629 29.527 22.3523C29.6406 22.5379 29.7846 22.6629 29.9588 22.7273C30.1368 22.7879 30.3243 22.8182 30.5213 22.8182C30.669 22.8182 30.7902 22.8106 30.8849 22.7955C30.9796 22.7765 31.0554 22.7614 31.1122 22.75L31.3849 23.9545C31.294 23.9886 31.1671 24.0227 31.0043 24.0568C30.8414 24.0947 30.6349 24.1136 30.3849 24.1136C30.0062 24.1136 29.6349 24.0322 29.2713 23.8693C28.9115 23.7064 28.6122 23.4583 28.3736 23.125C28.1387 22.7917 28.0213 22.3712 28.0213 21.8636V13.1818ZM38.7429 20.4318V15.2727H40.0838V24H38.7429V22.5227H38.652C38.4474 22.9659 38.1293 23.3428 37.6974 23.6534C37.2656 23.9602 36.7202 24.1136 36.0611 24.1136C35.5156 24.1136 35.0308 23.9943 34.6065 23.7557C34.1823 23.5133 33.849 23.1496 33.6065 22.6648C33.3641 22.1761 33.2429 21.5606 33.2429 20.8182V15.2727H34.5838V20.7273C34.5838 21.3636 34.7618 21.8712 35.1179 22.25C35.4777 22.6288 35.9361 22.8182 36.4929 22.8182C36.8262 22.8182 37.1652 22.733 37.5099 22.5625C37.8584 22.392 38.1501 22.1307 38.3849 21.7784C38.6236 21.4261 38.7429 20.9773 38.7429 20.4318ZM45.8352 24.1818C45.108 24.1818 44.4659 23.9981 43.9091 23.6307C43.3523 23.2595 42.9167 22.7367 42.6023 22.0625C42.2879 21.3845 42.1307 20.5833 42.1307 19.6591C42.1307 18.7424 42.2879 17.947 42.6023 17.2727C42.9167 16.5985 43.3542 16.0777 43.9148 15.7102C44.4754 15.3428 45.1231 15.1591 45.858 15.1591C46.4261 15.1591 46.875 15.2538 47.2045 15.4432C47.5379 15.6288 47.7917 15.8409 47.9659 16.0795C48.1439 16.3144 48.2822 16.5076 48.3807 16.6591H48.4943V12.3636H49.8352V24H48.5398V22.6591H48.3807C48.2822 22.8182 48.142 23.0189 47.9602 23.2614C47.7784 23.5 47.5189 23.714 47.1818 23.9034C46.8447 24.089 46.3958 24.1818 45.8352 24.1818ZM46.017 22.9773C46.5549 22.9773 47.0095 22.8371 47.3807 22.5568C47.7519 22.2727 48.0341 21.8807 48.2273 21.3807C48.4205 20.8769 48.517 20.2955 48.517 19.6364C48.517 18.9848 48.4223 18.4148 48.233 17.9261C48.0436 17.4337 47.7633 17.0511 47.392 16.7784C47.0208 16.5019 46.5625 16.3636 46.017 16.3636C45.4489 16.3636 44.9754 16.5095 44.5966 16.8011C44.2216 17.089 43.9394 17.4811 43.75 17.9773C43.5644 18.4697 43.4716 19.0227 43.4716 19.6364C43.4716 20.2576 43.5663 20.822 43.7557 21.3295C43.9489 21.8333 44.233 22.2348 44.608 22.5341C44.9867 22.8295 45.4564 22.9773 46.017 22.9773ZM52.4773 24V15.2727H53.8182V24H52.4773ZM53.1591 13.8182C52.8977 13.8182 52.6723 13.7292 52.483 13.5511C52.2973 13.3731 52.2045 13.1591 52.2045 12.9091C52.2045 12.6591 52.2973 12.4451 52.483 12.267C52.6723 12.089 52.8977 12 53.1591 12C53.4205 12 53.6439 12.089 53.8295 12.267C54.0189 12.4451 54.1136 12.6591 54.1136 12.9091C54.1136 13.1591 54.0189 13.3731 53.8295 13.5511C53.6439 13.7292 53.4205 13.8182 53.1591 13.8182ZM59.8196 24.1818C59.0317 24.1818 58.3404 23.9943 57.7457 23.6193C57.1548 23.2443 56.6927 22.7197 56.3594 22.0455C56.0298 21.3712 55.8651 20.5833 55.8651 19.6818C55.8651 18.7727 56.0298 17.9792 56.3594 17.3011C56.6927 16.6231 57.1548 16.0966 57.7457 15.7216C58.3404 15.3466 59.0317 15.1591 59.8196 15.1591C60.6075 15.1591 61.2969 15.3466 61.8878 15.7216C62.4825 16.0966 62.9446 16.6231 63.2741 17.3011C63.6075 17.9792 63.7741 18.7727 63.7741 19.6818C63.7741 20.5833 63.6075 21.3712 63.2741 22.0455C62.9446 22.7197 62.4825 23.2443 61.8878 23.6193C61.2969 23.9943 60.6075 24.1818 59.8196 24.1818ZM59.8196 22.9773C60.4181 22.9773 60.9105 22.8239 61.2969 22.517C61.6832 22.2102 61.9692 21.8068 62.1548 21.3068C62.3404 20.8068 62.4332 20.2652 62.4332 19.6818C62.4332 19.0985 62.3404 18.5549 62.1548 18.0511C61.9692 17.5473 61.6832 17.1402 61.2969 16.8295C60.9105 16.5189 60.4181 16.3636 59.8196 16.3636C59.2211 16.3636 58.7287 16.5189 58.3423 16.8295C57.956 17.1402 57.67 17.5473 57.4844 18.0511C57.2988 18.5549 57.206 19.0985 57.206 19.6818C57.206 20.2652 57.2988 20.8068 57.4844 21.3068C57.67 21.8068 57.956 22.2102 58.3423 22.517C58.7287 22.8239 59.2211 22.9773 59.8196 22.9773ZM74.3892 12.3636V24H72.9801V13.8409H72.9119L70.071 15.7273V14.2955L72.9801 12.3636H74.3892Z" fill="black"/>
</svg>
